<?xml version="1.0" encoding="UTF-8"?>
<svg width="623px" height="470px" viewBox="0 0 623 470" version="1.1" xmlns="http://www.w3.org/2000/svg" xmlns:xlink="http://www.w3.org/1999/xlink">
    <title>9.4</title>
    <defs>
        <rect id="path-1" x="15" y="20" width="232" height="420" rx="26.4"></rect>
        <mask id="mask-2" maskContentUnits="userSpaceOnUse" maskUnits="objectBoundingBox" x="0" y="0" width="232" height="420" fill="white">
            <use xlink:href="#path-1"></use>
        </mask>
        <rect id="path-3" x="378" y="21" width="232" height="420" rx="26.4"></rect>
        <mask id="mask-4" maskContentUnits="userSpaceOnUse" maskUnits="objectBoundingBox" x="0" y="0" width="232" height="420" fill="white">
            <use xlink:href="#path-3"></use>
        </mask>
    </defs>
    <g id="2.18" stroke="none" stroke-width="1" fill="none" fill-rule="evenodd">
        <g id="配图" transform="translate(-926.000000, -2458.000000)">
            <g id="9.4" transform="translate(926.000000, 2458.000000)">
                <rect id="矩形" x="0.2" y="0" width="622" height="470"></rect>
                <path d="M94.4,213.6 C94.4,227.572898 83.0728981,238.9 69.1,238.9 C55.1271019,238.9 43.8,227.572898 43.8,213.6 C43.8,199.627102 55.1271019,188.3 69.1,188.3 C83.0728981,188.3 94.4,199.627102 94.4,213.6 Z" id="Stroke-1备份-13" stroke="#2C3E7F" stroke-width="0.704" transform="translate(69.100000, 213.600000) scale(-1, 1) translate(-69.100000, -213.600000) "></path>
                <path d="M578.4,213.6 C578.4,227.572898 567.072898,238.9 553.1,238.9 C539.127102,238.9 527.8,227.572898 527.8,213.6 C527.8,199.627102 539.127102,188.3 553.1,188.3 C567.072898,188.3 578.4,199.627102 578.4,213.6 Z" id="Stroke-1备份-15" stroke="#2C3E7F" stroke-width="0.704" transform="translate(553.100000, 213.600000) scale(-1, 1) rotate(-180.000000) translate(-553.100000, -213.600000) "></path>
                <path d="M205.5,213.6 C205.5,227.572898 194.172898,238.9 180.2,238.9 C166.227102,238.9 154.9,227.572898 154.9,213.6 C154.9,199.627102 166.227102,188.3 180.2,188.3 C194.172898,188.3 205.5,199.627102 205.5,213.6 Z" id="Stroke-1备份-14" stroke="#2C3E7F" stroke-width="0.704" transform="translate(180.200000, 213.600000) scale(-1, 1) translate(-180.200000, -213.600000) "></path>
                <path d="M467.3,213.6 C467.3,227.572898 455.972898,238.9 442,238.9 C428.027102,238.9 416.7,227.572898 416.7,213.6 C416.7,199.627102 428.027102,188.3 442,188.3 C455.972898,188.3 467.3,199.627102 467.3,213.6 Z" id="Stroke-1备份-16" stroke="#2C3E7F" stroke-width="0.704" transform="translate(442.000000, 213.600000) scale(-1, 1) rotate(-180.000000) translate(-442.000000, -213.600000) "></path>
                <path d="M98.8,213.6 C98.8,230.002677 85.502677,243.3 69.1,243.3 C52.697323,243.3 39.4,230.002677 39.4,213.6 C39.4,197.197323 52.697323,183.9 69.1,183.9" id="Stroke-3备份-4" stroke="#2C3E7F" stroke-width="0.704" transform="translate(69.100000, 213.600000) scale(-1, 1) translate(-69.100000, -213.600000) "></path>
                <path d="M582.8,213.6 C582.8,230.002677 569.502677,243.3 553.1,243.3 C536.697323,243.3 523.4,230.002677 523.4,213.6 C523.4,197.197323 536.697323,183.9 553.1,183.9" id="Stroke-3备份-6" stroke="#2C3E7F" stroke-width="0.704" transform="translate(553.100000, 213.600000) scale(-1, 1) rotate(-180.000000) translate(-553.100000, -213.600000) "></path>
                <path d="M209.9,213.6 C209.9,230.002677 196.602677,243.3 180.2,243.3 C163.797323,243.3 150.5,230.002677 150.5,213.6 C150.5,197.197323 163.797323,183.9 180.2,183.9" id="Stroke-3备份-5" stroke="#2C3E7F" stroke-width="0.704" transform="translate(180.200000, 213.600000) scale(-1, 1) translate(-180.200000, -213.600000) "></path>
                <path d="M471.7,213.6 C471.7,230.002677 458.402677,243.3 442,243.3 C425.597323,243.3 412.3,230.002677 412.3,213.6 C412.3,197.197323 425.597323,183.9 442,183.9" id="Stroke-3备份-7" stroke="#2C3E7F" stroke-width="0.704" transform="translate(442.000000, 213.600000) scale(-1, 1) rotate(-180.000000) translate(-442.000000, -213.600000) "></path>
                <path d="M78.4656907,225.653595 L61.1610909,225.653595 L61.1610909,224.006232 L66.0026724,224.006232 L66.0026724,221.686002 C65.9880491,221.629399 66.0009072,221.569203 66.0373734,221.523548 C66.0738396,221.477893 66.1296513,221.452115 66.187996,221.453979 L73.4851164,221.453979 C73.5485701,221.44642 73.6119805,221.468423 73.6571653,221.513679 C73.7023501,221.558936 73.7243184,221.622447 73.716771,221.686002 L73.716771,224.006232 L78.4888561,224.006232 L78.4888561,225.7 L78.4656907,225.653595 Z M79.8092874,220.433078 L59.4931777,220.433078 C59.1142695,220.427061 58.753652,220.268865 58.4923032,219.994012 C58.2309544,219.719159 58.0907776,219.350685 58.10325,218.971333 L58.10325,202.938543 C58.0778847,202.573772 58.2018092,202.214368 58.446513,201.943015 C58.6912169,201.671662 59.03563,201.511725 59.4005158,201.5 L79.8787838,201.5 C80.2330348,201.5 80.5724506,201.642464 80.8207564,201.895527 C81.0690621,202.148591 81.20543,202.490974 81.1992151,202.845733 L81.1992151,219.087344 C81.2117063,219.462771 81.0746803,219.827773 80.8183204,220.101948 C80.5619605,220.376124 80.2072968,220.536982 79.8324529,220.549089 L79.8092874,220.433078 Z M74.365404,208.831927 L74.365404,217.602397 L77.2147557,217.602397 L77.2147557,208.831927 L74.365404,208.831927 Z M65.0992194,211.546596 L65.0992194,217.579195 L67.994902,217.579195 L67.994902,211.546596 L65.0992194,211.546596 Z M60.9294363,214.214861 L60.9294363,217.602397 L63.8482844,217.602397 L63.8482844,214.214861 L60.9294363,214.214861 Z M69.7091462,206.094056 L69.7091462,217.53279 L72.6743253,217.53279 L72.6743253,206.094056 L69.7091462,206.094056 Z" id="形状备份-5" fill="#2C3E7F" fill-rule="nonzero"></path>
                <g id="计算节点父类备份-3" transform="translate(165.900000, 198.200000)" fill="#2C3E7F" fill-rule="nonzero">
                    <path d="M20.0732,15.45992 C20.0732,18.77176 17.34712,21.45416 13.9804,21.45416 C10.6148,21.45416 7.88872,18.77176 7.88872,15.45992 C7.88872,12.14864 10.6148,9.46624 13.98096,9.46624 C17.34656,9.46624 20.0732,12.14864 20.0732,15.45992 Z M27.62256,23.17392 C26.8436,24.5 25.12048,24.95416 23.76976,24.18808 C22.5176,23.47688 22.03096,21.96824 22.58592,20.69368 L20.888,19.7288 C19.44432,21.98504 16.89016,23.4836 13.98096,23.4836 C11.088,23.4836 8.55064001,22.00408 7.10136001,19.77024 L5.43312,20.71664 C5.99087999,21.99064 5.50144001,23.49984 4.24928001,24.21104 C2.90079999,24.976 1.17599999,24.52128 0.396480002,23.1952 C-0.380240004,21.87192 0.0817599956,20.1768 1.43023999,19.41072 C2.68239998,18.69952 4.25487998,19.03888 5.09936001,20.1516 L6.7676,19.2052 C6.14843877,18.0548487 5.82513318,16.7685543 5.82679999,15.46216 C5.82679999,11.14176 9.29712,7.61768 13.6472,7.4452 L13.6472,5.53727999 C12.2472,5.376 11.16192,4.2028 11.16192,2.78375999 C11.16192,1.25216 12.42528,0.00840000219 13.98096,0.00840000219 C15.53944,0.00840000219 16.8,1.2488 16.8,2.78320001 C16.8,4.20504002 15.71472,5.37544002 14.31472,5.53672001 L14.31472,7.4452 C18.6648,7.61487999 22.14016,11.13952 22.14016,15.46216 C22.14016,16.79664 21.80976,18.05496 21.224,19.16208 L22.92528,20.12696 C23.76192,19.01424 25.33664,18.67544 26.5888,19.38608 C27.93728,20.1516 28.40208,21.84728 27.62256,23.17336 L27.62256,23.17392 Z M20.8936,18.3232 C21.2837381,17.4183636 21.4838732,16.4430386 21.4816191,15.45768 C21.4816191,14.4648 21.28448,13.49936 20.8936,12.5916 C20.5161385,11.7134724 19.9707492,10.9175503 19.28808,10.24856 C18.6033657,9.57226911 17.793707,9.03553977 16.90416,8.66823999 C15.9779509,8.2826644 14.9842171,8.0854406 13.98096,8.08805385 C12.96624,8.08805385 11.98456,8.28239999 11.05776,8.66823999 C10.1690829,9.03748607 9.35959413,9.57397677 8.67328,10.24856 C7.99081185,10.9176003 7.44561513,11.7135191 7.06832001,12.5916 C6.67969938,13.4978963 6.47963747,14.4738173 6.48031826,15.45992 C6.48031826,16.4528 6.67744,17.41824 7.06832001,18.326 C7.44494042,19.2037933 7.99024041,19.9991017 8.67328,20.6668 C9.35815968,21.3431512 10.1680135,21.8798839 11.05776,22.24712 C11.9840084,22.6325037 12.9777408,22.8295368 13.98096,22.8267498 C14.99512,22.8267498 15.9768,22.6324 16.90416,22.24712 C17.7926831,21.877644 18.6019802,21.3409643 19.28808,20.66624 C19.9698794,19.9965203 20.5151443,19.2007797 20.8936,18.3232 Z" id="形状"></path>
                    <path d="M20.0732,15.45992 C20.0732,18.77176 17.34712,21.45416 13.9804,21.45416 C10.6148,21.45416 7.88872,18.77176 7.88872,15.45992 C7.88872,12.14864 10.6148,9.46624 13.98096,9.46624 C17.34656,9.46624 20.0732,12.14864 20.0732,15.45992 Z" id="路径"></path>
                </g>
                <g id="计算节点父类备份-4" transform="translate(427.700000, 198.200000)" fill="#2C3E7F" fill-rule="nonzero">
                    <path d="M20.0732,15.45992 C20.0732,18.77176 17.34712,21.45416 13.9804,21.45416 C10.6148,21.45416 7.88872,18.77176 7.88872,15.45992 C7.88872,12.14864 10.6148,9.46624 13.98096,9.46624 C17.34656,9.46624 20.0732,12.14864 20.0732,15.45992 Z M27.62256,23.17392 C26.8436,24.5 25.12048,24.95416 23.76976,24.18808 C22.5176,23.47688 22.03096,21.96824 22.58592,20.69368 L20.888,19.7288 C19.44432,21.98504 16.89016,23.4836 13.98096,23.4836 C11.088,23.4836 8.55064001,22.00408 7.10136001,19.77024 L5.43312,20.71664 C5.99087999,21.99064 5.50144001,23.49984 4.24928001,24.21104 C2.90079999,24.976 1.17599999,24.52128 0.396480002,23.1952 C-0.380240004,21.87192 0.0817599956,20.1768 1.43023999,19.41072 C2.68239998,18.69952 4.25487998,19.03888 5.09936001,20.1516 L6.7676,19.2052 C6.14843877,18.0548487 5.82513318,16.7685543 5.82679999,15.46216 C5.82679999,11.14176 9.29712,7.61768 13.6472,7.4452 L13.6472,5.53727999 C12.2472,5.376 11.16192,4.2028 11.16192,2.78375999 C11.16192,1.25216 12.42528,0.00840000219 13.98096,0.00840000219 C15.53944,0.00840000219 16.8,1.2488 16.8,2.78320001 C16.8,4.20504002 15.71472,5.37544002 14.31472,5.53672001 L14.31472,7.4452 C18.6648,7.61487999 22.14016,11.13952 22.14016,15.46216 C22.14016,16.79664 21.80976,18.05496 21.224,19.16208 L22.92528,20.12696 C23.76192,19.01424 25.33664,18.67544 26.5888,19.38608 C27.93728,20.1516 28.40208,21.84728 27.62256,23.17336 L27.62256,23.17392 Z M20.8936,18.3232 C21.2837381,17.4183636 21.4838732,16.4430386 21.4816191,15.45768 C21.4816191,14.4648 21.28448,13.49936 20.8936,12.5916 C20.5161385,11.7134724 19.9707492,10.9175503 19.28808,10.24856 C18.6033657,9.57226911 17.793707,9.03553977 16.90416,8.66823999 C15.9779509,8.2826644 14.9842171,8.0854406 13.98096,8.08805385 C12.96624,8.08805385 11.98456,8.28239999 11.05776,8.66823999 C10.1690829,9.03748607 9.35959413,9.57397677 8.67328,10.24856 C7.99081185,10.9176003 7.44561513,11.7135191 7.06832001,12.5916 C6.67969938,13.4978963 6.47963747,14.4738173 6.48031826,15.45992 C6.48031826,16.4528 6.67744,17.41824 7.06832001,18.326 C7.44494042,19.2037933 7.99024041,19.9991017 8.67328,20.6668 C9.35815968,21.3431512 10.1680135,21.8798839 11.05776,22.24712 C11.9840084,22.6325037 12.9777408,22.8295368 13.98096,22.8267498 C14.99512,22.8267498 15.9768,22.6324 16.90416,22.24712 C17.7926831,21.877644 18.6019802,21.3409643 19.28808,20.66624 C19.9698794,19.9965203 20.5151443,19.2007797 20.8936,18.3232 Z" id="形状"></path>
                    <path d="M20.0732,15.45992 C20.0732,18.77176 17.34712,21.45416 13.9804,21.45416 C10.6148,21.45416 7.88872,18.77176 7.88872,15.45992 C7.88872,12.14864 10.6148,9.46624 13.98096,9.46624 C17.34656,9.46624 20.0732,12.14864 20.0732,15.45992 Z" id="路径"></path>
                </g>
                <path id="直线-9" d="M396.805556,211.6 L406.805556,216.35 L396.805556,221.1 L396.805,216.9 L227.5,216.9 L227.5,215.8 L396.805,215.8 L396.805556,211.6 Z" fill="#2C3E7F" fill-rule="nonzero"></path>
                <path id="直线-10" d="M226.494444,211.6 L226.494,215.8 L394.7,215.8 L394.7,216.9 L226.494,216.9 L226.494444,221.1 L216.494444,216.35 L226.494444,211.6 Z" fill="#2C3E7F" fill-rule="nonzero"></path>
                <path d="M203.007421,345.857421 C203.007421,358.311525 192.911525,368.407421 180.457421,368.407421 C168.003316,368.407421 157.907421,358.311525 157.907421,345.857421 C157.907421,333.403316 168.003316,323.307421 180.457421,323.307421 C192.911525,323.307421 203.007421,333.403316 203.007421,345.857421 Z" id="Stroke-1备份-13" stroke="#2C3E7F" stroke-width="0.616" transform="translate(180.457421, 345.857421) rotate(-45.000000) translate(-180.457421, -345.857421) "></path>
                <path d="M464.807421,345.857421 C464.807421,358.311525 454.711525,368.407421 442.257421,368.407421 C429.803316,368.407421 419.707421,358.311525 419.707421,345.857421 C419.707421,333.403316 429.803316,323.307421 442.257421,323.307421 C454.711525,323.307421 464.807421,333.403316 464.807421,345.857421 Z" id="Stroke-1备份-17" stroke="#2C3E7F" stroke-width="0.616" transform="translate(442.257421, 345.857421) rotate(-45.000000) translate(-442.257421, -345.857421) "></path>
                <path d="M206.307421,345.857421 C206.307421,360.133825 194.733825,371.707421 180.457421,371.707421 C166.181016,371.707421 154.607421,360.133825 154.607421,345.857421 C154.607421,331.581016 166.181016,320.007421 180.457421,320.007421" id="Stroke-3备份-4" stroke="#2C3E7F" stroke-width="0.616" transform="translate(180.457421, 345.857421) rotate(-45.000000) translate(-180.457421, -345.857421) "></path>
                <path d="M468.107421,345.857421 C468.107421,360.133825 456.533825,371.707421 442.257421,371.707421 C427.981016,371.707421 416.407421,360.133825 416.407421,345.857421 C416.407421,331.581016 427.981016,320.007421 442.257421,320.007421" id="Stroke-3备份-8" stroke="#2C3E7F" stroke-width="0.616" transform="translate(442.257421, 345.857421) rotate(-45.000000) translate(-442.257421, -345.857421) "></path>
                <path id="直线-12" d="M181.85,250.444444 L186.6,260.444444 L182.4,260.444 L182.4,317.55 L181.3,317.55 L181.3,260.444 L177.1,260.444444 L181.85,250.444444 Z" fill="#2C3E7F" fill-rule="nonzero"></path>
                <path id="直线-12备份" d="M442,250.444444 L446.75,260.444444 L442.549,260.444 L442.55,317.55 L441.45,317.55 L441.449,260.444 L437.25,260.444444 L442,250.444444 Z" fill="#2C3E7F" fill-rule="nonzero"></path>
                <path id="直线-11" d="M133.355556,206.65 L143.355556,211.4 L133.355556,216.15 L133.355,211.949 L104.85,211.95 L104.85,210.85 L133.355,210.849 L133.355556,206.65 Z" fill="#2C3E7F" fill-rule="nonzero"></path>
                <path id="直线-11备份" d="M488.844444,208.85 L488.844,213.05 L517.35,213.05 L517.35,214.15 L488.844,214.15 L488.844444,218.35 L478.844444,213.6 L488.844444,208.85 Z" fill="#2C3E7F" fill-rule="nonzero"></path>
                <path d="M163.199,168.387 L163.199,162.225 L166.358,162.225 L166.358,160.886 L163.199,160.886 L163.199,156.687 L161.899,156.635 L161.899,160.886 L158.87,160.886 L158.87,162.225 L161.899,162.225 L161.899,168.387 L163.199,168.387 Z M157.739,160.067 L158.753,159.079 C158.649,158.914333 158.516833,158.7215 158.3565,158.5005 C158.196167,158.2795 158.027167,158.054167 157.8495,157.8245 C157.671833,157.594833 157.494167,157.376 157.3165,157.168 C157.138833,156.96 156.985,156.786667 156.855,156.648 L156.855,156.648 L155.893,157.441 C156.023,157.597 156.174667,157.792 156.348,158.026 C156.521333,158.26 156.696833,158.5005 156.8745,158.7475 C157.052167,158.9945 157.216833,159.237167 157.3685,159.4755 C157.520167,159.713833 157.643667,159.911 157.739,160.067 L157.739,160.067 Z M157.102,168.01 C157.197333,167.923333 157.297,167.828 157.401,167.724 C157.505,167.62 157.617667,167.516 157.739,167.412 C157.973,167.212667 158.222167,167.009 158.4865,166.801 C158.750833,166.593 159.004333,166.400167 159.247,166.2225 C159.489667,166.044833 159.704167,165.888833 159.8905,165.7545 C160.076833,165.620167 160.209,165.522667 160.287,165.462 L160.287,165.462 L159.871,164.123 L157.908,165.683 L157.908,160.587 L154.996,160.587 L154.996,161.913 L156.608,161.913 L156.608,166.203 C156.608,166.376333 156.595,166.525833 156.569,166.6515 C156.543,166.777167 156.443333,166.896333 156.27,167.009 L156.27,167.009 L157.102,168.01 Z M169.14,168.66 C169.772667,168.408667 170.307833,168.1205 170.7455,167.7955 C171.183167,167.4705 171.497333,167.082667 171.688,166.632 L171.688,166.632 L175.12,166.632 L175.12,168.452 L176.277,168.452 L176.277,166.632 L179.163,166.632 L179.163,165.592 L176.277,165.592 L176.277,164.734 L177.681,164.734 L177.681,159.638 L176.576,159.638 L177.252,159.092 C177.2,159.014 177.137167,158.923 177.0635,158.819 C176.989833,158.715 176.909667,158.606667 176.823,158.494 L176.823,158.494 L178.929,158.494 L178.929,157.441 L175.393,157.441 C175.462333,157.319667 175.525167,157.198333 175.5815,157.077 C175.637833,156.955667 175.696333,156.834333 175.757,156.713 L175.757,156.713 L174.626,156.44 C174.478667,156.743333 174.311833,157.055333 174.1255,157.376 C173.939167,157.696667 173.737667,158.008667 173.521,158.312 L173.521,158.312 L173.521,157.441 L170.713,157.441 C170.860333,157.198333 170.994667,156.947 171.116,156.687 L171.116,156.687 L169.972,156.401 C169.868,156.609 169.7315,156.845167 169.5625,157.1095 C169.3935,157.373833 169.207167,157.644667 169.0035,157.922 C168.799833,158.199333 168.583167,158.470167 168.3535,158.7345 C168.123833,158.998833 167.892,159.235 167.658,159.443 L167.658,159.443 L168.685,160.119 C168.763,160.041 168.838833,159.963 168.9125,159.885 C168.986167,159.807 169.057667,159.729 169.127,159.651 L169.127,159.651 L169.127,164.734 L170.674,164.734 C170.665333,164.881333 170.661,165.035167 170.661,165.1955 C170.661,165.355833 170.656667,165.488 170.648,165.592 L170.648,165.592 L167.619,165.592 L167.619,166.632 L170.323,166.632 C170.175667,166.805333 169.959,166.972167 169.673,167.1325 C169.387,167.292833 168.997,167.468333 168.503,167.659 L168.503,167.659 L169.14,168.66 Z M171.077,159.638 L169.14,159.638 C169.304667,159.456 169.460667,159.269667 169.608,159.079 C169.755333,158.888333 169.902667,158.693333 170.05,158.494 L170.05,158.494 L170.284,158.494 C170.396667,158.65 170.528833,158.836333 170.6805,159.053 C170.832167,159.269667 170.964333,159.464667 171.077,159.638 L171.077,159.638 Z M176.342,159.638 L171.35,159.638 L172.013,159.092 C171.961,159.014 171.896,158.923 171.818,158.819 C171.74,158.715 171.657667,158.606667 171.571,158.494 L171.571,158.494 L173.391,158.494 C173.217667,158.736667 173.044333,158.962 172.871,159.17 L172.871,159.17 L174.002,159.612 C174.132,159.43 174.262,159.245833 174.392,159.0595 C174.522,158.873167 174.647667,158.684667 174.769,158.494 L174.769,158.494 L175.562,158.494 C175.683333,158.658667 175.817667,158.847167 175.965,159.0595 C176.112333,159.271833 176.238,159.464667 176.342,159.638 L176.342,159.638 Z M176.524,161.107 L170.297,161.107 L170.297,160.522 L176.524,160.522 L176.524,161.107 Z M176.524,162.485 L170.297,162.485 L170.297,161.913 L176.524,161.913 L176.524,162.485 Z M176.524,163.811 L170.297,163.811 L170.297,163.265 L176.524,163.265 L176.524,163.811 Z M175.12,165.592 L171.857,165.592 C171.865667,165.479333 171.87,165.345 171.87,165.189 L171.87,165.189 L171.87,164.734 L175.12,164.734 L175.12,165.592 Z M190.746,168.27 L190.746,156.908 L189.368,156.856 L189.368,168.27 L190.746,168.27 Z M183.063,168.205 L184.558,168.101 C185,168.066333 185.366167,168.018667 185.6565,167.958 C185.946833,167.897333 186.178667,167.802 186.352,167.672 C186.525333,167.542 186.651,167.3665 186.729,167.1455 C186.807,166.9245 186.859,166.632 186.885,166.268 C186.893667,166.146667 186.902333,165.986333 186.911,165.787 C186.919667,165.587667 186.9305,165.368833 186.9435,165.1305 C186.9565,164.892167 186.9695,164.6495 186.9825,164.4025 C186.9955,164.1555 187.0085,163.923667 187.0215,163.707 C187.0345,163.490333 187.045333,163.299667 187.054,163.135 C187.062667,162.970333 187.067,162.857667 187.067,162.797 L187.067,162.797 L182.699,162.797 L182.816,161.263 L187.08,161.263 L187.08,157.207 L181.425,157.207 L181.425,158.468 L185.715,158.468 L185.715,160.041 L181.542,160.041 L181.256,164.032 L185.663,164.032 C185.663,164.136 185.6565,164.274667 185.6435,164.448 C185.6305,164.621333 185.6175,164.803333 185.6045,164.994 C185.5915,165.184667 185.580667,165.362333 185.572,165.527 C185.563333,165.691667 185.554667,165.817333 185.546,165.904 C185.528667,166.103333 185.5005,166.2615 185.4615,166.3785 C185.4225,166.4955 185.353167,166.5865 185.2535,166.6515 C185.153833,166.7165 185.021667,166.764167 184.857,166.7945 C184.692333,166.824833 184.475667,166.848667 184.207,166.866 L184.207,166.866 L182.686,166.957 L183.063,168.205 Z M199.599,162.602 C200.561,162.281333 201.349667,161.904333 201.965,161.471 C202.277,161.679 202.623667,161.874 203.005,162.056 C203.386333,162.238 203.811,162.411333 204.279,162.576 L204.279,162.576 L204.695,161.523 C204.305,161.419 203.954,161.306333 203.642,161.185 C203.33,161.063667 203.039667,160.929333 202.771,160.782 C203.039667,160.504667 203.267167,160.205667 203.4535,159.885 C203.639833,159.564333 203.798,159.209 203.928,158.819 L203.928,158.819 L204.565,158.819 L204.565,157.87 L201.406,157.87 C201.492667,157.696667 201.572833,157.529833 201.6465,157.3695 C201.720167,157.209167 201.791667,157.042333 201.861,156.869 L201.861,156.869 L200.821,156.557 C200.656333,156.981667 200.465667,157.399833 200.249,157.8115 C200.032333,158.223167 199.733333,158.641333 199.352,159.066 L199.352,159.066 L195.205,159.066 C195.222333,159.031333 195.239667,159.001 195.257,158.975 C195.274333,158.949 195.291667,158.918667 195.309,158.884 L195.309,158.884 L194.373,158.572 C194.069667,159.161333 193.636333,159.681333 193.073,160.132 L193.073,160.132 L193.489,161.042 C193.740333,160.842667 193.965667,160.639 194.165,160.431 L194.165,160.431 L194.165,162.16 L197.337,162.16 L197.337,161.744 L197.584,162.459 L197.883,162.42 C198.099667,162.394 198.288167,162.365833 198.4485,162.3355 C198.608833,162.305167 198.743167,162.266167 198.8515,162.2185 C198.959833,162.170833 199.0465,162.108 199.1115,162.03 C199.1765,161.952 199.222,161.848 199.248,161.718 L199.248,161.718 L199.599,162.602 Z M198.364,158.845 L198.364,158.39 L199.82,158.39 L199.82,157.545 L198.364,157.545 L198.364,156.752 L197.298,156.7 L197.298,157.545 L196.076,157.545 L196.076,156.752 L194.997,156.7 L194.997,157.545 L193.463,157.545 L193.463,158.39 L194.997,158.39 L194.997,158.767 L196.076,158.767 L196.076,158.39 L197.298,158.39 L197.298,158.845 L198.364,158.845 Z M201.965,160.223 C201.739667,160.023667 201.544667,159.809167 201.38,159.5795 C201.215333,159.349833 201.068,159.096333 200.938,158.819 L200.938,158.819 L202.888,158.819 C202.775333,159.096333 202.645333,159.349833 202.498,159.5795 C202.350667,159.809167 202.173,160.023667 201.965,160.223 Z M199.274,161.536 L199.274,161.432 C199.291333,161.12 199.302167,160.779833 199.3065,160.4115 C199.310833,160.043167 199.321667,159.707333 199.339,159.404 L199.339,159.404 L199.859,160.132 C199.928333,160.045333 199.997667,159.963 200.067,159.885 C200.136333,159.807 200.205667,159.724667 200.275,159.638 C200.500333,160.054 200.795,160.444 201.159,160.808 C200.907667,160.946667 200.628167,161.0745 200.3205,161.1915 C200.012833,161.3085 199.664,161.423333 199.274,161.536 L199.274,161.536 Z M197.337,161.627 L197.337,160.262 L194.321,160.262 C194.390333,160.192667 194.455333,160.121167 194.516,160.0475 C194.576667,159.973833 194.633,159.902333 194.685,159.833 L194.685,159.833 L198.325,159.833 C198.316333,159.937 198.307667,160.0475 198.299,160.1645 C198.290333,160.2815 198.283833,160.3985 198.2795,160.5155 C198.275167,160.6325 198.268667,160.745167 198.26,160.8535 C198.251333,160.961833 198.242667,161.050667 198.234,161.12 C198.225333,161.310667 198.179833,161.429833 198.0975,161.4775 C198.015167,161.525167 197.861333,161.562 197.636,161.588 L197.636,161.588 L197.337,161.627 Z M196.453,161.458 L195.01,161.458 L195.01,160.925 L196.453,160.925 L196.453,161.458 Z M197.064,168.53 L198.234,168.452 C198.554667,168.426 198.819,168.387 199.027,168.335 C199.235,168.283 199.399667,168.205 199.521,168.101 C199.642333,167.997 199.724667,167.858333 199.768,167.685 C199.811333,167.511667 199.833,167.290667 199.833,167.022 L199.833,167.022 L199.833,166.723 L204.604,166.723 L204.604,165.839 L199.833,165.839 L199.833,165.215 L203.343,165.215 L203.343,164.383 L199.833,164.383 L199.833,163.707 C200.509,163.672333 201.161167,163.6355 201.7895,163.5965 C202.417833,163.5575 202.983333,163.516333 203.486,163.473 L203.486,163.473 L203.382,162.615 C202.792667,162.675667 202.105833,162.732 201.3215,162.784 C200.537167,162.836 199.724667,162.8815 198.884,162.9205 C198.043333,162.9595 197.209167,162.989833 196.3815,163.0115 C195.553833,163.033167 194.806333,163.044 194.139,163.044 L194.139,163.044 L194.217,163.876 C194.789,163.867333 195.452,163.854333 196.206,163.837 C196.96,163.819667 197.744333,163.793667 198.559,163.759 L198.559,163.759 L198.559,164.383 L194.633,164.383 L194.633,165.215 L198.559,165.215 L198.559,165.839 L193.385,165.839 L193.385,166.723 L198.559,166.723 L198.559,166.814 C198.559,166.944 198.548167,167.045833 198.5265,167.1195 C198.504833,167.193167 198.465833,167.2495 198.4095,167.2885 C198.353167,167.3275 198.275167,167.355667 198.1755,167.373 C198.075833,167.390333 197.943667,167.403333 197.779,167.412 L197.779,167.412 L196.726,167.49 L197.064,168.53 Z" id="计算引擎" fill="#000000" fill-rule="nonzero"></path>
                <path d="M106.112,79.84 L107.072,78.496 C106.432,77.984 105.861333,77.48 105.36,76.984 C104.858667,76.488 104.410667,75.968 104.016,75.424 C104.496,74.592 104.864,73.68 105.12,72.688 C105.376,71.696 105.568,70.5333333 105.696,69.2 L105.696,69.2 L106.736,69.2 L106.736,67.616 L102.704,67.616 C102.949333,66.8373333 103.152,66.096 103.312,65.392 L103.312,65.392 L101.84,65.12 C101.744,65.5786667 101.621333,66.0666667 101.472,66.584 C101.322667,67.1013333 101.146667,67.6213333 100.944,68.144 C100.741333,68.6666667 100.522667,69.1733333 100.288,69.664 L100.288,69.664 L100.224,69.792 L100.11,70.023 C99.99,70.2563333 99.8673333,70.4776667 99.742,70.687 L99.552,70.992 L100.672,72.08 C100.704,72.0266667 100.738667,71.968 100.776,71.904 C100.813333,71.84 100.848,71.776 100.88,71.712 C101.146667,73.0133333 101.594667,74.2293333 102.224,75.36 C101.872,75.8613333 101.466667,76.336 101.008,76.784 C100.549333,77.232 100.016,77.6746667 99.408,78.112 L99.408,78.112 L99.648,77.664 C99.4346667,77.5466667 99.2213333,77.4373333 99.008,77.336 C98.7946667,77.2346667 98.592,77.1306667 98.4,77.024 C98.7306667,76.6933333 99.0106667,76.344 99.24,75.976 C99.4693333,75.608 99.6746667,75.2213333 99.856,74.816 L99.856,74.816 L99.856,73.584 L96.496,73.584 L96.784,72.848 L95.344,72.448 C95.2906667,72.6186667 95.224,72.7973333 95.144,72.984 C95.064,73.1706667 94.9813333,73.3706667 94.896,73.584 L94.896,73.584 L92.944,73.584 L92.944,74.88 L94.256,74.88 C94.1386667,75.104 94.0213333,75.3253333 93.904,75.544 C93.7866667,75.7626667 93.664,75.9786667 93.536,76.192 C93.8773333,76.352 94.2293333,76.5226667 94.592,76.704 C94.9546667,76.8853333 95.3226667,77.072 95.696,77.264 C95.2906667,77.456 94.832,77.648 94.32,77.84 C93.808,78.032 93.216,78.2293333 92.544,78.432 L92.544,78.432 L93.184,79.824 C94.0586667,79.536 94.8213333,79.2426667 95.472,78.944 C96.1226667,78.6453333 96.688,78.336 97.168,78.016 C97.488,78.1866667 97.7973333,78.3546667 98.096,78.52 C98.3946667,78.6853333 98.6826667,78.8426667 98.96,78.992 L98.96,78.992 L99.104,78.704 L99.888,79.792 C100.570667,79.2586667 101.178667,78.744 101.712,78.248 C102.245333,77.752 102.714667,77.248 103.12,76.736 C103.888,77.7706667 104.885333,78.8053333 106.112,79.84 L106.112,79.84 Z M93.248,73.264 C94.368,72.6026667 95.3173333,71.8613333 96.096,71.04 L96.096,71.04 L96.096,72.544 L97.504,72.544 L97.504,71.184 C97.6426667,71.2906667 97.7946667,71.4106667 97.96,71.544 C98.1253333,71.6773333 98.2906667,71.8186667 98.456,71.968 L98.456,71.968 L98.952,72.416 C99.1173333,72.5653333 99.264,72.7093333 99.392,72.848 L99.392,72.848 L100.208,71.76 C100.037333,71.6 99.8533333,71.432 99.656,71.256 C99.4586667,71.08 99.2586667,70.9093333 99.056,70.744 C98.8533333,70.5786667 98.6586667,70.4266667 98.472,70.288 C98.2853333,70.1493333 98.1226667,70.032 97.984,69.936 L97.984,69.936 L97.504,70.544 L97.504,69.792 L100.224,69.792 L100.224,68.464 L97.504,68.464 L97.504,65.312 L96.096,65.248 L96.096,68.464 L93.008,68.464 L93.008,69.792 L95.648,69.792 C95.2426667,70.1973333 94.7813333,70.584 94.264,70.952 C93.7466667,71.32 93.2,71.6586667 92.624,71.968 L92.624,71.968 L93.248,73.264 Z M94.688,68.288 L95.728,67.552 C95.632,67.3813333 95.5226667,67.2 95.4,67.008 C95.2773333,66.816 95.1493333,66.6266667 95.016,66.44 C94.8826667,66.2533333 94.7546667,66.08 94.632,65.92 C94.5093333,65.76 94.4,65.6213333 94.304,65.504 L94.304,65.504 L93.344,66.208 C93.4506667,66.3466667 93.568,66.504 93.696,66.68 C93.824,66.856 93.9493333,67.04 94.072,67.232 C94.1946667,67.424 94.3093333,67.6133333 94.416,67.8 C94.5226667,67.9866667 94.6133333,68.1493333 94.688,68.288 L94.688,68.288 Z M98.848,68.384 C98.9546667,68.256 99.072,68.104 99.2,67.928 C99.328,67.752 99.4613333,67.568 99.6,67.376 C99.7386667,67.184 99.872,66.9893333 100,66.792 C100.128,66.5946667 100.24,66.4106667 100.336,66.24 L100.336,66.24 L99.264,65.52 C99.168,65.6906667 99.0586667,65.8773333 98.936,66.08 C98.8133333,66.2826667 98.6853333,66.48 98.552,66.672 C98.4186667,66.864 98.2853333,67.0453333 98.152,67.216 C98.0186667,67.3866667 97.904,67.5306667 97.808,67.648 L97.808,67.648 L98.848,68.384 Z M103.088,73.888 C102.789333,73.28 102.544,72.6293333 102.352,71.936 C102.16,71.2426667 102.016,70.48 101.92,69.648 L101.92,69.648 L102.112,69.2 L104.256,69.2 C104.149333,70.1493333 104.005333,71.0053333 103.824,71.768 C103.642667,72.5306667 103.397333,73.2373333 103.088,73.888 Z M97.088,76.4 C96.8,76.2613333 96.5253333,76.1333333 96.264,76.016 C96.0026667,75.8986667 95.7546667,75.7866667 95.52,75.68 L95.52,75.68 L95.92,74.88 L98.272,74.88 C98.1333333,75.1786667 97.9706667,75.4506667 97.784,75.696 C97.5973333,75.9413333 97.3653333,76.176 97.088,76.4 Z M109.28,79.584 L110.016,79.52 C110.4,79.488 110.717333,79.4453333 110.968,79.392 C111.218667,79.3386667 111.416,79.2533333 111.56,79.136 C111.704,79.0186667 111.805333,78.8506667 111.864,78.632 C111.922667,78.4133333 111.952,78.128 111.952,77.776 L111.952,77.776 L111.952,73.232 C112.229333,73.1146667 112.485333,73.0026667 112.72,72.896 C112.954667,72.7893333 113.162667,72.6933333 113.344,72.608 L113.344,72.608 L113.12,71.024 C112.949333,71.0986667 112.765333,71.1786667 112.568,71.264 C112.370667,71.3493333 112.165333,71.4346667 111.952,71.52 L111.952,71.52 L111.952,69.488 L113.232,69.488 L113.232,67.984 L111.952,67.984 L111.952,65.296 L110.48,65.232 L110.48,67.984 L108.832,67.984 L108.832,69.488 L110.48,69.488 L110.48,72.128 C110.074667,72.288 109.688,72.4373333 109.32,72.576 C108.952,72.7146667 108.629333,72.8266667 108.352,72.912 L108.352,72.912 L108.672,74.544 C108.906667,74.4586667 109.181333,74.3573333 109.496,74.24 C109.810667,74.1226667 110.138667,73.9946667 110.48,73.856 L110.48,73.856 L110.48,77.296 C110.48,77.456 110.469333,77.584 110.448,77.68 C110.426667,77.776 110.384,77.848 110.32,77.896 C110.256,77.944 110.170667,77.9786667 110.064,78 C109.957333,78.0213333 109.818667,78.0373333 109.648,78.048 L109.648,78.048 L108.848,78.112 L109.28,79.584 Z M116.88,79.632 L116.88,78.992 L120.304,78.992 L120.304,79.616 L121.792,79.616 L121.792,74.224 L119.376,74.224 L119.376,72.864 L122.752,72.864 L122.752,71.456 L119.376,71.456 L119.376,70.368 L117.888,70.304 L117.888,71.456 L115.216,71.456 L115.216,70.144 L122.08,70.144 L122.08,65.92 L113.696,65.92 L113.696,70.512 C113.696,71.5573333 113.666667,72.4613333 113.608,73.224 C113.549333,73.9866667 113.448,74.68 113.304,75.304 C113.16,75.928 112.970667,76.512 112.736,77.056 C112.501333,77.6 112.208,78.176 111.856,78.784 L111.856,78.784 L113.232,79.616 C113.541333,79.104 113.810667,78.6026667 114.04,78.112 C114.269333,77.6213333 114.458667,77.112 114.608,76.584 C114.757333,76.056 114.877333,75.488 114.968,74.88 C115.058667,74.272 115.125333,73.6 115.168,72.864 L115.168,72.864 L117.888,72.864 L117.888,74.224 L115.376,74.224 L115.376,79.632 L116.88,79.632 Z M120.528,68.784 L115.216,68.784 L115.216,67.264 L120.528,67.264 L120.528,68.784 Z M120.304,77.632 L116.88,77.632 L116.88,75.632 L120.304,75.632 L120.304,77.632 Z M125.024,79.632 L125.728,79.552 C126.069333,79.5306667 126.349333,79.4933333 126.568,79.44 C126.786667,79.3866667 126.96,79.2986667 127.088,79.176 C127.216,79.0533333 127.304,78.888 127.352,78.68 C127.4,78.472 127.424,78.2026667 127.424,77.872 L127.424,77.872 L127.424,73.424 C127.701333,73.3066667 127.957333,73.1973333 128.192,73.096 C128.426667,72.9946667 128.634667,72.9013333 128.816,72.816 L128.816,72.816 L128.656,71.232 C128.485333,71.3066667 128.296,71.3893333 128.088,71.48 C127.88,71.5706667 127.658667,71.6586667 127.424,71.744 L127.424,71.744 L127.424,69.536 L128.768,69.536 L128.768,68.032 L127.424,68.032 L127.424,65.296 L125.968,65.232 L125.968,68.032 L124.512,68.032 L124.512,69.536 L125.968,69.536 L125.968,72.304 C125.605333,72.4426667 125.258667,72.5706667 124.928,72.688 C124.597333,72.8053333 124.309333,72.9013333 124.064,72.976 L124.064,72.976 L124.336,74.608 C124.549333,74.5333333 124.797333,74.4453333 125.08,74.344 C125.362667,74.2426667 125.658667,74.128 125.968,74 L125.968,74 L125.968,77.312 C125.968,77.5893333 125.914667,77.7626667 125.808,77.832 C125.701333,77.9013333 125.52,77.952 125.264,77.984 L125.264,77.984 L124.544,78.064 L125.024,79.632 Z M129.104,79.744 C129.306667,79.3706667 129.488,79.0053333 129.648,78.648 C129.808,78.2906667 129.944,77.928 130.056,77.56 C130.168,77.192 130.258667,76.808 130.328,76.408 C130.397333,76.008 130.448,75.584 130.48,75.136 L130.48,75.136 L132.656,75.136 L132.656,79.232 L134.112,79.232 L134.112,75.136 L136.16,75.136 L136.16,77.184 C136.16,77.344 136.149333,77.4693333 136.128,77.56 C136.106667,77.6506667 136.069333,77.7226667 136.016,77.776 C135.962667,77.8293333 135.882667,77.8693333 135.776,77.896 C135.669333,77.9226667 135.536,77.9413333 135.376,77.952 L135.376,77.952 L134.624,78.032 L135.104,79.584 L135.904,79.504 C136.224,79.472 136.496,79.4213333 136.72,79.352 C136.944,79.2826667 137.125333,79.1813333 137.264,79.048 C137.402667,78.9146667 137.501333,78.736 137.56,78.512 C137.618667,78.288 137.648,78.0053333 137.648,77.664 L137.648,77.664 L137.648,65.936 L129.088,65.936 L129.088,72.304 C129.088,73.2106667 129.066667,73.9786667 129.024,74.608 C128.981333,75.2373333 128.904,75.8026667 128.792,76.304 C128.68,76.8053333 128.528,77.2746667 128.336,77.712 C128.144,78.1493333 127.904,78.624 127.616,79.136 L127.616,79.136 L129.104,79.744 Z M132.656,69.84 L130.56,69.84 L130.56,67.456 L132.656,67.456 L132.656,69.84 Z M136.16,69.84 L134.112,69.84 L134.112,67.456 L136.16,67.456 L136.16,69.84 Z M132.656,73.6 L130.56,73.6 L130.56,71.376 L132.656,71.376 L132.656,73.6 Z M136.16,73.6 L134.112,73.6 L134.112,71.376 L136.16,71.376 L136.16,73.6 Z M149.152,79.632 L150.432,79.536 C150.794667,79.504 151.104,79.4533333 151.36,79.384 C151.616,79.3146667 151.824,79.2106667 151.984,79.072 C152.144,78.9333333 152.258667,78.7493333 152.328,78.52 C152.397333,78.2906667 152.432,78.0053333 152.432,77.664 L152.432,77.664 L152.432,69.68 L144.96,69.68 C145.109333,69.4453333 145.256,69.2106667 145.4,68.976 C145.544,68.7413333 145.685333,68.5013333 145.824,68.256 L145.824,68.256 L154.16,68.256 L154.16,66.768 L146.576,66.768 C146.682667,66.5226667 146.786667,66.2773333 146.888,66.032 C146.989333,65.7866667 147.088,65.536 147.184,65.28 L147.184,65.28 L145.552,64.912 C145.349333,65.5306667 145.098667,66.1493333 144.8,66.768 L144.8,66.768 L140.512,66.768 L140.512,68.256 L143.984,68.256 C143.408,69.1733333 142.757333,70.024 142.032,70.808 C141.306667,71.592 140.533333,72.3093333 139.712,72.96 L139.712,72.96 L140.496,74.528 C141.317333,73.856 142.053333,73.1786667 142.704,72.496 L142.704,72.496 L142.704,79.504 L144.288,79.504 L144.288,76.688 L150.832,76.688 L150.832,77.248 C150.832,77.4186667 150.824,77.5546667 150.808,77.656 C150.792,77.7573333 150.752,77.8346667 150.688,77.888 C150.624,77.9413333 150.530667,77.9786667 150.408,78 C150.285333,78.0213333 150.117333,78.0373333 149.904,78.048 L149.904,78.048 L148.688,78.144 L149.152,79.632 Z M150.832,72.48 L144.288,72.48 L144.288,71.104 L150.832,71.104 L150.832,72.48 Z M150.832,75.296 L144.288,75.296 L144.288,73.84 L150.832,73.84 L150.832,75.296 Z M160.176,79.568 L160.176,78.96 L166.112,78.96 L166.112,79.568 L167.728,79.568 L167.728,72.576 L162.272,72.576 C162.666667,72.352 163.042667,72.128 163.4,71.904 C163.757333,71.68 164.101333,71.4453333 164.432,71.2 L164.432,71.2 L169.664,71.2 L169.664,69.824 L166.144,69.824 C166.666667,69.344 167.149333,68.8426667 167.592,68.32 C168.034667,67.7973333 168.458667,67.232 168.864,66.624 L168.864,66.624 L167.616,65.744 C167.136,66.4266667 166.618667,67.0773333 166.064,67.696 L166.064,67.696 L166.064,66.784 L162.768,66.784 L162.768,65.2 L161.168,65.136 L161.168,66.784 L157.664,66.784 L157.664,68.128 L161.168,68.128 L161.168,69.824 L156.224,69.824 L156.224,71.2 L161.648,71.2 C160.816,71.68 159.904,72.1386667 158.912,72.576 C157.92,73.0133333 156.810667,73.4453333 155.584,73.872 L155.584,73.872 L156.096,75.424 C156.544,75.2426667 156.970667,75.0693333 157.376,74.904 C157.781333,74.7386667 158.176,74.5706667 158.56,74.4 L158.56,74.4 L158.56,79.568 L160.176,79.568 Z M163.728,69.824 L162.768,69.824 L162.768,68.128 L165.648,68.128 C165.093333,68.7146667 164.453333,69.28 163.728,69.824 L163.728,69.824 Z M166.112,75.072 L160.176,75.072 L160.176,73.936 L166.112,73.936 L166.112,75.072 Z M166.112,77.6 L160.176,77.6 L160.176,76.432 L166.112,76.432 L166.112,77.6 Z" id="数据拥有者" fill="#000000" fill-rule="nonzero"></path>
                <path d="M464.04,68.768 L464.04,67.888 L466.136,67.888 L466.136,68.768 L467.496,68.768 L467.496,67.888 L469.672,67.888 L469.672,66.512 L467.496,66.512 L467.496,65.168 L466.136,65.104 L466.136,66.512 L464.04,66.512 L464.04,65.168 L462.664,65.104 L462.664,66.512 L460.712,66.512 L460.712,67.888 L462.664,67.888 L462.664,68.768 L464.04,68.768 Z M460.296,79.888 C461.533333,79.5466667 462.530667,79.1546667 463.288,78.712 C464.045333,78.2693333 464.616,77.76 465,77.184 C465.949333,78.4426667 467.512,79.3386667 469.688,79.872 L469.688,79.872 L470.12,78.432 C469.053333,78.208 468.194667,77.9173333 467.544,77.56 C466.893333,77.2026667 466.386667,76.768 466.024,76.256 L466.024,76.256 L469.688,76.256 L469.688,74.992 L465.656,74.992 L465.656,74.816 C465.656,74.7093333 465.658667,74.5946667 465.664,74.472 C465.669333,74.3493333 465.672,74.224 465.672,74.096 L465.672,74.096 L468.824,74.096 L468.824,68.896 L461.032,68.896 L461.032,72.416 C460.818667,72.1066667 460.570667,71.7813333 460.288,71.44 C460.005333,71.0986667 459.757333,70.816 459.544,70.592 L459.544,70.592 L459.288,70.832 L459.288,69.424 L460.92,69.424 L460.92,67.968 L459.288,67.968 L459.288,65.216 L457.896,65.152 L457.896,67.968 L456.04,67.968 L456.04,69.424 L457.704,69.424 C457.554667,69.8826667 457.381333,70.3466667 457.184,70.816 C456.986667,71.2853333 456.778667,71.7493333 456.56,72.208 C456.341333,72.6666667 456.117333,73.104 455.888,73.52 C455.658667,73.936 455.437333,74.3146667 455.224,74.656 L455.224,74.656 L456.376,75.808 C456.642667,75.36 456.904,74.8613333 457.16,74.312 C457.416,73.7626667 457.661333,73.1893333 457.896,72.592 L457.896,72.592 L457.896,79.568 L459.288,79.568 L459.288,72.272 C459.448,72.4746667 459.602667,72.6853333 459.752,72.904 C459.901333,73.1226667 460.04,73.3386667 460.168,73.552 L460.168,73.552 L461.032,72.8 L461.032,74.096 L464.2,74.096 L464.2,74.096 L464.2,74.48 C464.2,74.608 464.194667,74.72 464.184,74.816 C464.184,74.8906667 464.178667,74.9493333 464.168,74.992 L464.168,74.992 L460.408,74.992 L460.408,76.256 L463.8,76.256 C463.522667,76.7573333 463.064,77.1893333 462.424,77.552 C461.784,77.9146667 460.882667,78.2293333 459.72,78.496 L459.72,78.496 L460.296,79.888 Z M467.544,70.992 L462.36,70.992 L462.36,70.144 L467.544,70.144 L467.544,70.992 Z M467.544,72.848 L462.36,72.848 L462.36,72.032 L467.544,72.032 L467.544,72.848 Z M481.464,73.872 L482.648,73.776 C483.042667,73.744 483.370667,73.6933333 483.632,73.624 C483.893333,73.5546667 484.098667,73.448 484.248,73.304 C484.397333,73.16 484.504,72.9733333 484.568,72.744 C484.632,72.5146667 484.664,72.2186667 484.664,71.856 L484.664,71.856 L484.664,65.504 L483.176,65.44 L483.176,71.456 C483.176,71.808 483.104,72.032 482.96,72.128 C482.816,72.224 482.562667,72.288 482.2,72.32 L482.2,72.32 L481.016,72.416 L481.464,73.872 Z M473.128,74.688 C473.458667,74.368 473.738667,74.0613333 473.968,73.768 C474.197333,73.4746667 474.389333,73.1786667 474.544,72.88 C474.698667,72.5813333 474.818667,72.272 474.904,71.952 C474.989333,71.632 475.053333,71.28 475.096,70.896 L475.096,70.896 L476.92,70.896 L476.92,73.664 L478.424,73.664 L478.424,70.896 L480.12,70.896 L480.12,69.504 L478.424,69.504 L478.424,67.392 L479.8,67.392 L479.8,65.952 L472.28,65.952 L472.28,67.392 L473.688,67.392 L473.688,69.504 L471.88,69.504 L471.88,70.896 L473.592,70.896 C473.549333,71.152 473.490667,71.392 473.416,71.616 C473.341333,71.84 473.237333,72.0613333 473.104,72.28 C472.970667,72.4986667 472.808,72.7253333 472.616,72.96 C472.424,73.1946667 472.189333,73.456 471.912,73.744 L471.912,73.744 L473.128,74.688 Z M481.832,71.84 L481.832,66.32 L480.376,66.256 L480.376,71.84 L481.832,71.84 Z M476.92,69.504 L475.176,69.504 L475.176,67.392 L476.92,67.392 L476.92,69.504 Z M485.608,79.28 L485.608,77.84 L479.432,77.84 L479.432,76.112 L484.008,76.112 L484.008,74.72 L479.432,74.72 L479.432,73.872 L477.848,73.808 L477.848,74.72 L473.288,74.72 L473.288,76.112 L477.848,76.112 L477.848,77.84 L471.656,77.84 L471.656,79.28 L485.608,79.28 Z M488.024,79.632 L488.728,79.552 C489.069333,79.5306667 489.349333,79.4933333 489.568,79.44 C489.786667,79.3866667 489.96,79.2986667 490.088,79.176 C490.216,79.0533333 490.304,78.888 490.352,78.68 C490.4,78.472 490.424,78.2026667 490.424,77.872 L490.424,77.872 L490.424,73.424 C490.701333,73.3066667 490.957333,73.1973333 491.192,73.096 C491.426667,72.9946667 491.634667,72.9013333 491.816,72.816 L491.816,72.816 L491.656,71.232 C491.485333,71.3066667 491.296,71.3893333 491.088,71.48 C490.88,71.5706667 490.658667,71.6586667 490.424,71.744 L490.424,71.744 L490.424,69.536 L491.768,69.536 L491.768,68.032 L490.424,68.032 L490.424,65.296 L488.968,65.232 L488.968,68.032 L487.512,68.032 L487.512,69.536 L488.968,69.536 L488.968,72.304 C488.605333,72.4426667 488.258667,72.5706667 487.928,72.688 C487.597333,72.8053333 487.309333,72.9013333 487.064,72.976 L487.064,72.976 L487.336,74.608 C487.549333,74.5333333 487.797333,74.4453333 488.08,74.344 C488.362667,74.2426667 488.658667,74.128 488.968,74 L488.968,74 L488.968,77.312 C488.968,77.5893333 488.914667,77.7626667 488.808,77.832 C488.701333,77.9013333 488.52,77.952 488.264,77.984 L488.264,77.984 L487.544,78.064 L488.024,79.632 Z M492.104,79.744 C492.306667,79.3706667 492.488,79.0053333 492.648,78.648 C492.808,78.2906667 492.944,77.928 493.056,77.56 C493.168,77.192 493.258667,76.808 493.328,76.408 C493.397333,76.008 493.448,75.584 493.48,75.136 L493.48,75.136 L495.656,75.136 L495.656,79.232 L497.112,79.232 L497.112,75.136 L499.16,75.136 L499.16,77.184 C499.16,77.344 499.149333,77.4693333 499.128,77.56 C499.106667,77.6506667 499.069333,77.7226667 499.016,77.776 C498.962667,77.8293333 498.882667,77.8693333 498.776,77.896 C498.669333,77.9226667 498.536,77.9413333 498.376,77.952 L498.376,77.952 L497.624,78.032 L498.104,79.584 L498.904,79.504 C499.224,79.472 499.496,79.4213333 499.72,79.352 C499.944,79.2826667 500.125333,79.1813333 500.264,79.048 C500.402667,78.9146667 500.501333,78.736 500.56,78.512 C500.618667,78.288 500.648,78.0053333 500.648,77.664 L500.648,77.664 L500.648,65.936 L492.088,65.936 L492.088,72.304 C492.088,73.2106667 492.066667,73.9786667 492.024,74.608 C491.981333,75.2373333 491.904,75.8026667 491.792,76.304 C491.68,76.8053333 491.528,77.2746667 491.336,77.712 C491.144,78.1493333 490.904,78.624 490.616,79.136 L490.616,79.136 L492.104,79.744 Z M495.656,69.84 L493.56,69.84 L493.56,67.456 L495.656,67.456 L495.656,69.84 Z M499.16,69.84 L497.112,69.84 L497.112,67.456 L499.16,67.456 L499.16,69.84 Z M495.656,73.6 L493.56,73.6 L493.56,71.376 L495.656,71.376 L495.656,73.6 Z M499.16,73.6 L497.112,73.6 L497.112,71.376 L499.16,71.376 L499.16,73.6 Z M512.152,79.632 L513.432,79.536 C513.794667,79.504 514.104,79.4533333 514.36,79.384 C514.616,79.3146667 514.824,79.2106667 514.984,79.072 C515.144,78.9333333 515.258667,78.7493333 515.328,78.52 C515.397333,78.2906667 515.432,78.0053333 515.432,77.664 L515.432,77.664 L515.432,69.68 L507.96,69.68 C508.109333,69.4453333 508.256,69.2106667 508.4,68.976 C508.544,68.7413333 508.685333,68.5013333 508.824,68.256 L508.824,68.256 L517.16,68.256 L517.16,66.768 L509.576,66.768 C509.682667,66.5226667 509.786667,66.2773333 509.888,66.032 C509.989333,65.7866667 510.088,65.536 510.184,65.28 L510.184,65.28 L508.552,64.912 C508.349333,65.5306667 508.098667,66.1493333 507.8,66.768 L507.8,66.768 L503.512,66.768 L503.512,68.256 L506.984,68.256 C506.408,69.1733333 505.757333,70.024 505.032,70.808 C504.306667,71.592 503.533333,72.3093333 502.712,72.96 L502.712,72.96 L503.496,74.528 C504.317333,73.856 505.053333,73.1786667 505.704,72.496 L505.704,72.496 L505.704,79.504 L507.288,79.504 L507.288,76.688 L513.832,76.688 L513.832,77.248 C513.832,77.4186667 513.824,77.5546667 513.808,77.656 C513.792,77.7573333 513.752,77.8346667 513.688,77.888 C513.624,77.9413333 513.530667,77.9786667 513.408,78 C513.285333,78.0213333 513.117333,78.0373333 512.904,78.048 L512.904,78.048 L511.688,78.144 L512.152,79.632 Z M513.832,72.48 L507.288,72.48 L507.288,71.104 L513.832,71.104 L513.832,72.48 Z M513.832,75.296 L507.288,75.296 L507.288,73.84 L513.832,73.84 L513.832,75.296 Z M523.176,79.568 L523.176,78.96 L529.112,78.96 L529.112,79.568 L530.728,79.568 L530.728,72.576 L525.272,72.576 C525.666667,72.352 526.042667,72.128 526.4,71.904 C526.757333,71.68 527.101333,71.4453333 527.432,71.2 L527.432,71.2 L532.664,71.2 L532.664,69.824 L529.144,69.824 C529.666667,69.344 530.149333,68.8426667 530.592,68.32 C531.034667,67.7973333 531.458667,67.232 531.864,66.624 L531.864,66.624 L530.616,65.744 C530.136,66.4266667 529.618667,67.0773333 529.064,67.696 L529.064,67.696 L529.064,66.784 L525.768,66.784 L525.768,65.2 L524.168,65.136 L524.168,66.784 L520.664,66.784 L520.664,68.128 L524.168,68.128 L524.168,69.824 L519.224,69.824 L519.224,71.2 L524.648,71.2 C523.816,71.68 522.904,72.1386667 521.912,72.576 C520.92,73.0133333 519.810667,73.4453333 518.584,73.872 L518.584,73.872 L519.096,75.424 C519.544,75.2426667 519.970667,75.0693333 520.376,74.904 C520.781333,74.7386667 521.176,74.5706667 521.56,74.4 L521.56,74.4 L521.56,79.568 L523.176,79.568 Z M526.728,69.824 L525.768,69.824 L525.768,68.128 L528.648,68.128 C528.093333,68.7146667 527.453333,69.28 526.728,69.824 L526.728,69.824 Z M529.112,75.072 L523.176,75.072 L523.176,73.936 L529.112,73.936 L529.112,75.072 Z M529.112,77.6 L523.176,77.6 L523.176,76.432 L529.112,76.432 L529.112,77.6 Z" id="模型拥有者" fill="#000000" fill-rule="nonzero"></path>
                <path d="M421.699,163.987 L421.699,157.825 L424.858,157.825 L424.858,156.486 L421.699,156.486 L421.699,152.287 L420.399,152.235 L420.399,156.486 L417.37,156.486 L417.37,157.825 L420.399,157.825 L420.399,163.987 L421.699,163.987 Z M416.239,155.667 L417.253,154.679 C417.149,154.514333 417.016833,154.3215 416.8565,154.1005 C416.696167,153.8795 416.527167,153.654167 416.3495,153.4245 C416.171833,153.194833 415.994167,152.976 415.8165,152.768 C415.638833,152.56 415.485,152.386667 415.355,152.248 L415.355,152.248 L414.393,153.041 C414.523,153.197 414.674667,153.392 414.848,153.626 C415.021333,153.86 415.196833,154.1005 415.3745,154.3475 C415.552167,154.5945 415.716833,154.837167 415.8685,155.0755 C416.020167,155.313833 416.143667,155.511 416.239,155.667 L416.239,155.667 Z M415.602,163.61 C415.697333,163.523333 415.797,163.428 415.901,163.324 C416.005,163.22 416.117667,163.116 416.239,163.012 C416.473,162.812667 416.722167,162.609 416.9865,162.401 C417.250833,162.193 417.504333,162.000167 417.747,161.8225 C417.989667,161.644833 418.204167,161.488833 418.3905,161.3545 C418.576833,161.220167 418.709,161.122667 418.787,161.062 L418.787,161.062 L418.371,159.723 L416.408,161.283 L416.408,156.187 L413.496,156.187 L413.496,157.513 L415.108,157.513 L415.108,161.803 C415.108,161.976333 415.095,162.125833 415.069,162.2515 C415.043,162.377167 414.943333,162.496333 414.77,162.609 L414.77,162.609 L415.602,163.61 Z M427.64,164.26 C428.272667,164.008667 428.807833,163.7205 429.2455,163.3955 C429.683167,163.0705 429.997333,162.682667 430.188,162.232 L430.188,162.232 L433.62,162.232 L433.62,164.052 L434.777,164.052 L434.777,162.232 L437.663,162.232 L437.663,161.192 L434.777,161.192 L434.777,160.334 L436.181,160.334 L436.181,155.238 L435.076,155.238 L435.752,154.692 C435.7,154.614 435.637167,154.523 435.5635,154.419 C435.489833,154.315 435.409667,154.206667 435.323,154.094 L435.323,154.094 L437.429,154.094 L437.429,153.041 L433.893,153.041 C433.962333,152.919667 434.025167,152.798333 434.0815,152.677 C434.137833,152.555667 434.196333,152.434333 434.257,152.313 L434.257,152.313 L433.126,152.04 C432.978667,152.343333 432.811833,152.655333 432.6255,152.976 C432.439167,153.296667 432.237667,153.608667 432.021,153.912 L432.021,153.912 L432.021,153.041 L429.213,153.041 C429.360333,152.798333 429.494667,152.547 429.616,152.287 L429.616,152.287 L428.472,152.001 C428.368,152.209 428.2315,152.445167 428.0625,152.7095 C427.8935,152.973833 427.707167,153.244667 427.5035,153.522 C427.299833,153.799333 427.083167,154.070167 426.8535,154.3345 C426.623833,154.598833 426.392,154.835 426.158,155.043 L426.158,155.043 L427.185,155.719 C427.263,155.641 427.338833,155.563 427.4125,155.485 C427.486167,155.407 427.557667,155.329 427.627,155.251 L427.627,155.251 L427.627,160.334 L429.174,160.334 C429.165333,160.481333 429.161,160.635167 429.161,160.7955 C429.161,160.955833 429.156667,161.088 429.148,161.192 L429.148,161.192 L426.119,161.192 L426.119,162.232 L428.823,162.232 C428.675667,162.405333 428.459,162.572167 428.173,162.7325 C427.887,162.892833 427.497,163.068333 427.003,163.259 L427.003,163.259 L427.64,164.26 Z M429.577,155.238 L427.64,155.238 C427.804667,155.056 427.960667,154.869667 428.108,154.679 C428.255333,154.488333 428.402667,154.293333 428.55,154.094 L428.55,154.094 L428.784,154.094 C428.896667,154.25 429.028833,154.436333 429.1805,154.653 C429.332167,154.869667 429.464333,155.064667 429.577,155.238 L429.577,155.238 Z M434.842,155.238 L429.85,155.238 L430.513,154.692 C430.461,154.614 430.396,154.523 430.318,154.419 C430.24,154.315 430.157667,154.206667 430.071,154.094 L430.071,154.094 L431.891,154.094 C431.717667,154.336667 431.544333,154.562 431.371,154.77 L431.371,154.77 L432.502,155.212 C432.632,155.03 432.762,154.845833 432.892,154.6595 C433.022,154.473167 433.147667,154.284667 433.269,154.094 L433.269,154.094 L434.062,154.094 C434.183333,154.258667 434.317667,154.447167 434.465,154.6595 C434.612333,154.871833 434.738,155.064667 434.842,155.238 L434.842,155.238 Z M435.024,156.707 L428.797,156.707 L428.797,156.122 L435.024,156.122 L435.024,156.707 Z M435.024,158.085 L428.797,158.085 L428.797,157.513 L435.024,157.513 L435.024,158.085 Z M435.024,159.411 L428.797,159.411 L428.797,158.865 L435.024,158.865 L435.024,159.411 Z M433.62,161.192 L430.357,161.192 C430.365667,161.079333 430.37,160.945 430.37,160.789 L430.37,160.789 L430.37,160.334 L433.62,160.334 L433.62,161.192 Z M449.246,163.87 L449.246,152.508 L447.868,152.456 L447.868,163.87 L449.246,163.87 Z M441.563,163.805 L443.058,163.701 C443.5,163.666333 443.866167,163.618667 444.1565,163.558 C444.446833,163.497333 444.678667,163.402 444.852,163.272 C445.025333,163.142 445.151,162.9665 445.229,162.7455 C445.307,162.5245 445.359,162.232 445.385,161.868 C445.393667,161.746667 445.402333,161.586333 445.411,161.387 C445.419667,161.187667 445.4305,160.968833 445.4435,160.7305 C445.4565,160.492167 445.4695,160.2495 445.4825,160.0025 C445.4955,159.7555 445.5085,159.523667 445.5215,159.307 C445.5345,159.090333 445.545333,158.899667 445.554,158.735 C445.562667,158.570333 445.567,158.457667 445.567,158.397 L445.567,158.397 L441.199,158.397 L441.316,156.863 L445.58,156.863 L445.58,152.807 L439.925,152.807 L439.925,154.068 L444.215,154.068 L444.215,155.641 L440.042,155.641 L439.756,159.632 L444.163,159.632 C444.163,159.736 444.1565,159.874667 444.1435,160.048 C444.1305,160.221333 444.1175,160.403333 444.1045,160.594 C444.0915,160.784667 444.080667,160.962333 444.072,161.127 C444.063333,161.291667 444.054667,161.417333 444.046,161.504 C444.028667,161.703333 444.0005,161.8615 443.9615,161.9785 C443.9225,162.0955 443.853167,162.1865 443.7535,162.2515 C443.653833,162.3165 443.521667,162.364167 443.357,162.3945 C443.192333,162.424833 442.975667,162.448667 442.707,162.466 L442.707,162.466 L441.186,162.557 L441.563,163.805 Z M458.099,158.202 C459.061,157.881333 459.849667,157.504333 460.465,157.071 C460.777,157.279 461.123667,157.474 461.505,157.656 C461.886333,157.838 462.311,158.011333 462.779,158.176 L462.779,158.176 L463.195,157.123 C462.805,157.019 462.454,156.906333 462.142,156.785 C461.83,156.663667 461.539667,156.529333 461.271,156.382 C461.539667,156.104667 461.767167,155.805667 461.9535,155.485 C462.139833,155.164333 462.298,154.809 462.428,154.419 L462.428,154.419 L463.065,154.419 L463.065,153.47 L459.906,153.47 C459.992667,153.296667 460.072833,153.129833 460.1465,152.9695 C460.220167,152.809167 460.291667,152.642333 460.361,152.469 L460.361,152.469 L459.321,152.157 C459.156333,152.581667 458.965667,152.999833 458.749,153.4115 C458.532333,153.823167 458.233333,154.241333 457.852,154.666 L457.852,154.666 L453.705,154.666 C453.722333,154.631333 453.739667,154.601 453.757,154.575 C453.774333,154.549 453.791667,154.518667 453.809,154.484 L453.809,154.484 L452.873,154.172 C452.569667,154.761333 452.136333,155.281333 451.573,155.732 L451.573,155.732 L451.989,156.642 C452.240333,156.442667 452.465667,156.239 452.665,156.031 L452.665,156.031 L452.665,157.76 L455.837,157.76 L455.837,157.344 L456.084,158.059 L456.383,158.02 C456.599667,157.994 456.788167,157.965833 456.9485,157.9355 C457.108833,157.905167 457.243167,157.866167 457.3515,157.8185 C457.459833,157.770833 457.5465,157.708 457.6115,157.63 C457.6765,157.552 457.722,157.448 457.748,157.318 L457.748,157.318 L458.099,158.202 Z M456.864,154.445 L456.864,153.99 L458.32,153.99 L458.32,153.145 L456.864,153.145 L456.864,152.352 L455.798,152.3 L455.798,153.145 L454.576,153.145 L454.576,152.352 L453.497,152.3 L453.497,153.145 L451.963,153.145 L451.963,153.99 L453.497,153.99 L453.497,154.367 L454.576,154.367 L454.576,153.99 L455.798,153.99 L455.798,154.445 L456.864,154.445 Z M460.465,155.823 C460.239667,155.623667 460.044667,155.409167 459.88,155.1795 C459.715333,154.949833 459.568,154.696333 459.438,154.419 L459.438,154.419 L461.388,154.419 C461.275333,154.696333 461.145333,154.949833 460.998,155.1795 C460.850667,155.409167 460.673,155.623667 460.465,155.823 Z M457.774,157.136 L457.774,157.032 C457.791333,156.72 457.802167,156.379833 457.8065,156.0115 C457.810833,155.643167 457.821667,155.307333 457.839,155.004 L457.839,155.004 L458.359,155.732 C458.428333,155.645333 458.497667,155.563 458.567,155.485 C458.636333,155.407 458.705667,155.324667 458.775,155.238 C459.000333,155.654 459.295,156.044 459.659,156.408 C459.407667,156.546667 459.128167,156.6745 458.8205,156.7915 C458.512833,156.9085 458.164,157.023333 457.774,157.136 L457.774,157.136 Z M455.837,157.227 L455.837,155.862 L452.821,155.862 C452.890333,155.792667 452.955333,155.721167 453.016,155.6475 C453.076667,155.573833 453.133,155.502333 453.185,155.433 L453.185,155.433 L456.825,155.433 C456.816333,155.537 456.807667,155.6475 456.799,155.7645 C456.790333,155.8815 456.783833,155.9985 456.7795,156.1155 C456.775167,156.2325 456.768667,156.345167 456.76,156.4535 C456.751333,156.561833 456.742667,156.650667 456.734,156.72 C456.725333,156.910667 456.679833,157.029833 456.5975,157.0775 C456.515167,157.125167 456.361333,157.162 456.136,157.188 L456.136,157.188 L455.837,157.227 Z M454.953,157.058 L453.51,157.058 L453.51,156.525 L454.953,156.525 L454.953,157.058 Z M455.564,164.13 L456.734,164.052 C457.054667,164.026 457.319,163.987 457.527,163.935 C457.735,163.883 457.899667,163.805 458.021,163.701 C458.142333,163.597 458.224667,163.458333 458.268,163.285 C458.311333,163.111667 458.333,162.890667 458.333,162.622 L458.333,162.622 L458.333,162.323 L463.104,162.323 L463.104,161.439 L458.333,161.439 L458.333,160.815 L461.843,160.815 L461.843,159.983 L458.333,159.983 L458.333,159.307 C459.009,159.272333 459.661167,159.2355 460.2895,159.1965 C460.917833,159.1575 461.483333,159.116333 461.986,159.073 L461.986,159.073 L461.882,158.215 C461.292667,158.275667 460.605833,158.332 459.8215,158.384 C459.037167,158.436 458.224667,158.4815 457.384,158.5205 C456.543333,158.5595 455.709167,158.589833 454.8815,158.6115 C454.053833,158.633167 453.306333,158.644 452.639,158.644 L452.639,158.644 L452.717,159.476 C453.289,159.467333 453.952,159.454333 454.706,159.437 C455.46,159.419667 456.244333,159.393667 457.059,159.359 L457.059,159.359 L457.059,159.983 L453.133,159.983 L453.133,160.815 L457.059,160.815 L457.059,161.439 L451.885,161.439 L451.885,162.323 L457.059,162.323 L457.059,162.414 C457.059,162.544 457.048167,162.645833 457.0265,162.7195 C457.004833,162.793167 456.965833,162.8495 456.9095,162.8885 C456.853167,162.9275 456.775167,162.955667 456.6755,162.973 C456.575833,162.990333 456.443667,163.003333 456.279,163.012 L456.279,163.012 L455.226,163.09 L455.564,164.13 Z" id="计算引擎" fill="#000000" fill-rule="nonzero"></path>
                <path d="M289.757,199.343 C290.329,198.736333 290.799167,198.1535 291.1675,197.5945 C291.535833,197.0355 291.832667,196.435333 292.058,195.794 C292.283333,195.152667 292.448,194.437667 292.552,193.649 C292.656,192.860333 292.721,191.933 292.747,190.867 L292.747,190.867 L294.515,190.867 C294.506333,190.953667 294.493333,191.1465 294.476,191.4455 C294.458667,191.7445 294.437,192.097667 294.411,192.505 C294.385,192.912333 294.356833,193.345667 294.3265,193.805 C294.296167,194.264333 294.268,194.697667 294.242,195.105 C294.216,195.512333 294.194333,195.8655 294.177,196.1645 C294.159667,196.4635 294.146667,196.652 294.138,196.73 C294.120667,196.938 294.096833,197.104833 294.0665,197.2305 C294.036167,197.356167 293.9885,197.455833 293.9235,197.5295 C293.8585,197.603167 293.765333,197.655167 293.644,197.6855 C293.522667,197.715833 293.362333,197.739667 293.163,197.757 L293.163,197.757 L292.305,197.835 L292.721,199.174 L293.579,199.096 C293.908333,199.07 294.185667,199.026667 294.411,198.966 C294.636333,198.905333 294.818333,198.81 294.957,198.68 C295.095667,198.55 295.1975,198.372333 295.2625,198.147 C295.3275,197.921667 295.373,197.622667 295.399,197.25 C295.407667,197.172 295.4185,197.000833 295.4315,196.7365 C295.4445,196.472167 295.461833,196.153667 295.4835,195.781 C295.505167,195.408333 295.529,194.996667 295.555,194.546 C295.581,194.095333 295.607,193.640333 295.633,193.181 C295.815,193.571 295.999167,193.989167 296.1855,194.4355 C296.371833,194.881833 296.534333,195.282667 296.673,195.638 L296.673,195.638 L297.7,194.923 C297.630667,194.723667 297.541833,194.5005 297.4335,194.2535 C297.325167,194.0065 297.210333,193.753 297.089,193.493 C296.967667,193.233 296.842,192.975167 296.712,192.7195 C296.582,192.463833 296.460667,192.232 296.348,192.024 L296.348,192.024 L295.672,192.388 L295.828,189.593 L292.773,189.593 L292.812,187.461 L291.616,187.409 C291.607333,187.669 291.605167,187.994 291.6095,188.384 C291.613833,188.774 291.607333,189.177 291.59,189.593 L291.59,189.593 L289.614,189.593 L289.614,190.867 L291.551,190.867 C291.490333,191.785667 291.412333,192.598167 291.317,193.3045 C291.221667,194.010833 291.072167,194.660833 290.8685,195.2545 C290.664833,195.848167 290.391833,196.407167 290.0495,196.9315 C289.707167,197.455833 289.258667,197.995333 288.704,198.55 L288.704,198.55 L289.757,199.343 Z M288.145,199.148 L288.145,192.011 L289.406,192.011 L289.406,190.75 L288.145,190.75 L288.145,187.487 L286.91,187.435 L286.91,190.75 L285.74,190.75 L285.74,192.011 L286.91,192.011 L286.91,199.148 L288.145,199.148 Z M289.692,195.807 C289.804667,195.564333 289.921667,195.297833 290.043,195.0075 C290.164333,194.717167 290.285667,194.416 290.407,194.104 C290.528333,193.792 290.645333,193.475667 290.758,193.155 C290.870667,192.834333 290.966,192.531 291.044,192.245 L291.044,192.245 L289.874,191.868 C289.726667,192.44 289.536,193.0185 289.302,193.6035 C289.068,194.1885 288.812333,194.741 288.535,195.261 L288.535,195.261 L289.692,195.807 Z M306.436,199.148 L307.476,199.07 C307.822667,199.044 308.113,199.002833 308.347,198.9465 C308.581,198.890167 308.767333,198.799167 308.906,198.6735 C309.044667,198.547833 309.142167,198.378833 309.1985,198.1665 C309.254833,197.954167 309.283,197.679 309.283,197.341 L309.283,197.341 L309.283,188.033 L299.169,188.033 L299.169,199.07 L300.443,199.07 L300.443,189.255 L307.983,189.255 L307.983,197.133 C307.983,197.289 307.974333,197.4125 307.957,197.5035 C307.939667,197.5945 307.900667,197.666 307.84,197.718 C307.779333,197.77 307.694833,197.809 307.5865,197.835 C307.478167,197.861 307.328667,197.878333 307.138,197.887 L307.138,197.887 L306.098,197.965 L306.436,199.148 Z M307.359,191.621 L307.359,190.49 L301.106,190.49 L301.106,191.621 L307.359,191.621 Z M306.696,197.081 L306.696,192.765 L301.73,192.765 L301.73,197.081 L306.696,197.081 Z M305.539,195.976 L302.887,195.976 L302.887,193.883 L305.539,193.883 L305.539,195.976 Z M319.683,199.187 L319.683,193.025 L322.842,193.025 L322.842,191.686 L319.683,191.686 L319.683,187.487 L318.383,187.435 L318.383,191.686 L315.354,191.686 L315.354,193.025 L318.383,193.025 L318.383,199.187 L319.683,199.187 Z M314.223,190.867 L315.237,189.879 C315.133,189.714333 315.000833,189.5215 314.8405,189.3005 C314.680167,189.0795 314.511167,188.854167 314.3335,188.6245 C314.155833,188.394833 313.978167,188.176 313.8005,187.968 C313.622833,187.76 313.469,187.586667 313.339,187.448 L313.339,187.448 L312.377,188.241 C312.507,188.397 312.658667,188.592 312.832,188.826 C313.005333,189.06 313.180833,189.3005 313.3585,189.5475 C313.536167,189.7945 313.700833,190.037167 313.8525,190.2755 C314.004167,190.513833 314.127667,190.711 314.223,190.867 L314.223,190.867 Z M313.586,198.81 C313.681333,198.723333 313.781,198.628 313.885,198.524 C313.989,198.42 314.101667,198.316 314.223,198.212 C314.457,198.012667 314.706167,197.809 314.9705,197.601 C315.234833,197.393 315.488333,197.200167 315.731,197.0225 C315.973667,196.844833 316.188167,196.688833 316.3745,196.5545 C316.560833,196.420167 316.693,196.322667 316.771,196.262 L316.771,196.262 L316.355,194.923 L314.392,196.483 L314.392,191.387 L311.48,191.387 L311.48,192.713 L313.092,192.713 L313.092,197.003 C313.092,197.176333 313.079,197.325833 313.053,197.4515 C313.027,197.577167 312.927333,197.696333 312.754,197.809 L312.754,197.809 L313.586,198.81 Z M325.624,199.46 C326.256667,199.208667 326.791833,198.9205 327.2295,198.5955 C327.667167,198.2705 327.981333,197.882667 328.172,197.432 L328.172,197.432 L331.604,197.432 L331.604,199.252 L332.761,199.252 L332.761,197.432 L335.647,197.432 L335.647,196.392 L332.761,196.392 L332.761,195.534 L334.165,195.534 L334.165,190.438 L333.06,190.438 L333.736,189.892 C333.684,189.814 333.621167,189.723 333.5475,189.619 C333.473833,189.515 333.393667,189.406667 333.307,189.294 L333.307,189.294 L335.413,189.294 L335.413,188.241 L331.877,188.241 C331.946333,188.119667 332.009167,187.998333 332.0655,187.877 C332.121833,187.755667 332.180333,187.634333 332.241,187.513 L332.241,187.513 L331.11,187.24 C330.962667,187.543333 330.795833,187.855333 330.6095,188.176 C330.423167,188.496667 330.221667,188.808667 330.005,189.112 L330.005,189.112 L330.005,188.241 L327.197,188.241 C327.344333,187.998333 327.478667,187.747 327.6,187.487 L327.6,187.487 L326.456,187.201 C326.352,187.409 326.2155,187.645167 326.0465,187.9095 C325.8775,188.173833 325.691167,188.444667 325.4875,188.722 C325.283833,188.999333 325.067167,189.270167 324.8375,189.5345 C324.607833,189.798833 324.376,190.035 324.142,190.243 L324.142,190.243 L325.169,190.919 C325.247,190.841 325.322833,190.763 325.3965,190.685 C325.470167,190.607 325.541667,190.529 325.611,190.451 L325.611,190.451 L325.611,195.534 L327.158,195.534 C327.149333,195.681333 327.145,195.835167 327.145,195.9955 C327.145,196.155833 327.140667,196.288 327.132,196.392 L327.132,196.392 L324.103,196.392 L324.103,197.432 L326.807,197.432 C326.659667,197.605333 326.443,197.772167 326.157,197.9325 C325.871,198.092833 325.481,198.268333 324.987,198.459 L324.987,198.459 L325.624,199.46 Z M327.561,190.438 L325.624,190.438 C325.788667,190.256 325.944667,190.069667 326.092,189.879 C326.239333,189.688333 326.386667,189.493333 326.534,189.294 L326.534,189.294 L326.768,189.294 C326.880667,189.45 327.012833,189.636333 327.1645,189.853 C327.316167,190.069667 327.448333,190.264667 327.561,190.438 L327.561,190.438 Z M332.826,190.438 L327.834,190.438 L328.497,189.892 C328.445,189.814 328.38,189.723 328.302,189.619 C328.224,189.515 328.141667,189.406667 328.055,189.294 L328.055,189.294 L329.875,189.294 C329.701667,189.536667 329.528333,189.762 329.355,189.97 L329.355,189.97 L330.486,190.412 C330.616,190.23 330.746,190.045833 330.876,189.8595 C331.006,189.673167 331.131667,189.484667 331.253,189.294 L331.253,189.294 L332.046,189.294 C332.167333,189.458667 332.301667,189.647167 332.449,189.8595 C332.596333,190.071833 332.722,190.264667 332.826,190.438 L332.826,190.438 Z M333.008,191.907 L326.781,191.907 L326.781,191.322 L333.008,191.322 L333.008,191.907 Z M333.008,193.285 L326.781,193.285 L326.781,192.713 L333.008,192.713 L333.008,193.285 Z M333.008,194.611 L326.781,194.611 L326.781,194.065 L333.008,194.065 L333.008,194.611 Z M331.604,196.392 L328.341,196.392 C328.349667,196.279333 328.354,196.145 328.354,195.989 L328.354,195.989 L328.354,195.534 L331.604,195.534 L331.604,196.392 Z" id="协同计算" fill="#000000" fill-rule="nonzero"></path>
                <path d="M63.0915,268.695 L63.8715,267.603 C63.3515,267.187 62.8878333,266.7775 62.4805,266.3745 C62.0731667,265.9715 61.7091667,265.549 61.3885,265.107 C61.7785,264.431 62.0775,263.69 62.2855,262.884 C62.4935,262.078 62.6495,261.133333 62.7535,260.05 L62.7535,260.05 L63.5985,260.05 L63.5985,258.763 L60.3225,258.763 C60.5218333,258.130333 60.6865,257.528 60.8165,256.956 L60.8165,256.956 L59.6205,256.735 C59.5425,257.107667 59.4428333,257.504167 59.3215,257.9245 C59.2001667,258.344833 59.0571667,258.767333 58.8925,259.192 C58.7278333,259.616667 58.5501667,260.028333 58.3595,260.427 L58.3595,260.427 L58.307,260.531 L58.214875,260.718687 C58.117375,260.908271 58.0177083,261.088104 57.915875,261.258187 L57.7615,261.506 L58.6715,262.39 C58.6975,262.346667 58.7256667,262.299 58.756,262.247 C58.7863333,262.195 58.8145,262.143 58.8405,262.091 C59.0571667,263.148333 59.4211667,264.136333 59.9325,265.055 C59.6465,265.462333 59.3171667,265.848 58.9445,266.212 C58.5718333,266.576 58.1385,266.935667 57.6445,267.291 L57.6445,267.291 L57.8395,266.927 C57.6661667,266.831667 57.4928333,266.742833 57.3195,266.6605 C57.1461667,266.578167 56.9815,266.493667 56.8255,266.407 C57.0941667,266.138333 57.3216667,265.8545 57.508,265.5555 C57.6943333,265.2565 57.8611667,264.942333 58.0085,264.613 L58.0085,264.613 L58.0085,263.612 L55.2785,263.612 L55.5125,263.014 L54.3425,262.689 C54.2991667,262.827667 54.245,262.972833 54.18,263.1245 C54.115,263.276167 54.0478333,263.438667 53.9785,263.612 L53.9785,263.612 L52.3925,263.612 L52.3925,264.665 L53.4585,264.665 C53.3631667,264.847 53.2678333,265.026833 53.1725,265.2045 C53.0771667,265.382167 52.9775,265.557667 52.8735,265.731 C53.1508333,265.861 53.4368333,265.999667 53.7315,266.147 C54.0261667,266.294333 54.3251667,266.446 54.6285,266.602 C54.2991667,266.758 53.9265,266.914 53.5105,267.07 C53.0945,267.226 52.6135,267.386333 52.0675,267.551 L52.0675,267.551 L52.5875,268.682 C53.2981667,268.448 53.9178333,268.209667 54.4465,267.967 C54.9751667,267.724333 55.4345,267.473 55.8245,267.213 C56.0845,267.351667 56.3358333,267.488167 56.5785,267.6225 C56.8211667,267.756833 57.0551667,267.884667 57.2805,268.006 L57.2805,268.006 L57.3975,267.772 L58.0345,268.656 C58.5891667,268.222667 59.0831667,267.8045 59.5165,267.4015 C59.9498333,266.9985 60.3311667,266.589 60.6605,266.173 C61.2845,267.013667 62.0948333,267.854333 63.0915,268.695 L63.0915,268.695 Z M52.6395,263.352 C53.5495,262.814667 54.3208333,262.212333 54.9535,261.545 L54.9535,261.545 L54.9535,262.767 L56.0975,262.767 L56.0975,261.662 C56.2101667,261.748667 56.3336667,261.846167 56.468,261.9545 C56.6023333,262.062833 56.7366667,262.177667 56.871,262.299 C57.0053333,262.420333 57.1396667,262.541667 57.274,262.663 C57.4083333,262.784333 57.5275,262.901333 57.6315,263.014 L57.6315,263.014 L58.2945,262.13 C58.1558333,262 58.0063333,261.8635 57.846,261.7205 C57.6856667,261.5775 57.5231667,261.438833 57.3585,261.3045 C57.1938333,261.170167 57.0356667,261.046667 56.884,260.934 C56.7323333,260.821333 56.6001667,260.726 56.4875,260.648 L56.4875,260.648 L56.0975,261.142 L56.0975,260.531 L58.3075,260.531 L58.3075,259.452 L56.0975,259.452 L56.0975,256.891 L54.9535,256.839 L54.9535,259.452 L52.4445,259.452 L52.4445,260.531 L54.5895,260.531 C54.2601667,260.860333 53.8853333,261.1745 53.465,261.4735 C53.0446667,261.7725 52.6005,262.047667 52.1325,262.299 L52.1325,262.299 L52.6395,263.352 Z M53.8095,259.309 L54.6545,258.711 C54.5765,258.572333 54.4876667,258.425 54.388,258.269 C54.2883333,258.113 54.1843333,257.959167 54.076,257.8075 C53.9676667,257.655833 53.8636667,257.515 53.764,257.385 C53.6643333,257.255 53.5755,257.142333 53.4975,257.047 L53.4975,257.047 L52.7175,257.619 C52.8041667,257.731667 52.8995,257.8595 53.0035,258.0025 C53.1075,258.1455 53.2093333,258.295 53.309,258.451 C53.4086667,258.607 53.5018333,258.760833 53.5885,258.9125 C53.6751667,259.064167 53.7488333,259.196333 53.8095,259.309 L53.8095,259.309 Z M57.1895,259.387 C57.2761667,259.283 57.3715,259.1595 57.4755,259.0165 C57.5795,258.8735 57.6878333,258.724 57.8005,258.568 C57.9131667,258.412 58.0215,258.253833 58.1255,258.0935 C58.2295,257.933167 58.3205,257.783667 58.3985,257.645 L58.3985,257.645 L57.5275,257.06 C57.4495,257.198667 57.3606667,257.350333 57.261,257.515 C57.1613333,257.679667 57.0573333,257.84 56.949,257.996 C56.8406667,258.152 56.7323333,258.299333 56.624,258.438 C56.5156667,258.576667 56.4225,258.693667 56.3445,258.789 L56.3445,258.789 L57.1895,259.387 Z M60.6345,263.859 C60.3918333,263.365 60.1925,262.836333 60.0365,262.273 C59.8805,261.709667 59.7635,261.09 59.6855,260.414 L59.6855,260.414 L59.8415,260.05 L61.5835,260.05 C61.4968333,260.821333 61.3798333,261.516833 61.2325,262.1365 C61.0851667,262.756167 60.8858333,263.330333 60.6345,263.859 Z M55.7595,265.9 C55.5255,265.787333 55.3023333,265.683333 55.09,265.588 C54.8776667,265.492667 54.6761667,265.401667 54.4855,265.315 L54.4855,265.315 L54.8105,264.665 L56.7215,264.665 C56.6088333,264.907667 56.4766667,265.128667 56.325,265.328 C56.1733333,265.527333 55.9848333,265.718 55.7595,265.9 Z M65.6655,268.487 L66.2635,268.435 C66.5755,268.409 66.8333333,268.374333 67.037,268.331 C67.2406667,268.287667 67.401,268.218333 67.518,268.123 C67.635,268.027667 67.7173333,267.891167 67.765,267.7135 C67.8126667,267.535833 67.8365,267.304 67.8365,267.018 L67.8365,267.018 L67.8365,263.326 C68.0618333,263.230667 68.2698333,263.139667 68.4605,263.053 C68.6511667,262.966333 68.8201667,262.888333 68.9675,262.819 L68.9675,262.819 L68.7855,261.532 C68.6468333,261.592667 68.4973333,261.657667 68.337,261.727 C68.1766667,261.796333 68.0098333,261.865667 67.8365,261.935 L67.8365,261.935 L67.8365,260.284 L68.8765,260.284 L68.8765,259.062 L67.8365,259.062 L67.8365,256.878 L66.6405,256.826 L66.6405,259.062 L65.3015,259.062 L65.3015,260.284 L66.6405,260.284 L66.6405,262.429 C66.3111667,262.559 65.997,262.680333 65.698,262.793 C65.399,262.905667 65.1368333,262.996667 64.9115,263.066 L64.9115,263.066 L65.1715,264.392 C65.3621667,264.322667 65.5853333,264.240333 65.841,264.145 C66.0966667,264.049667 66.3631667,263.945667 66.6405,263.833 L66.6405,263.833 L66.6405,266.628 C66.6405,266.758 66.6318333,266.862 66.6145,266.94 C66.5971667,267.018 66.5625,267.0765 66.5105,267.1155 C66.4585,267.1545 66.3891667,267.182667 66.3025,267.2 C66.2158333,267.217333 66.1031667,267.230333 65.9645,267.239 L65.9645,267.239 L65.3145,267.291 L65.6655,268.487 Z M71.8405,268.526 L71.8405,268.006 L74.6225,268.006 L74.6225,268.513 L75.8315,268.513 L75.8315,264.132 L73.8685,264.132 L73.8685,263.027 L76.6115,263.027 L76.6115,261.883 L73.8685,261.883 L73.8685,260.999 L72.6595,260.947 L72.6595,261.883 L70.4885,261.883 L70.4885,260.817 L76.0655,260.817 L76.0655,257.385 L69.2535,257.385 L69.2535,261.116 C69.2535,261.965333 69.2296667,262.699833 69.182,263.3195 C69.1343333,263.939167 69.052,264.5025 68.935,265.0095 C68.818,265.5165 68.6641667,265.991 68.4735,266.433 C68.2828333,266.875 68.0445,267.343 67.7585,267.837 L67.7585,267.837 L68.8765,268.513 C69.1278333,268.097 69.3466667,267.689667 69.533,267.291 C69.7193333,266.892333 69.8731667,266.4785 69.9945,266.0495 C70.1158333,265.6205 70.2133333,265.159 70.287,264.665 C70.3606667,264.171 70.4148333,263.625 70.4495,263.027 L70.4495,263.027 L72.6595,263.027 L72.6595,264.132 L70.6185,264.132 L70.6185,268.526 L71.8405,268.526 Z M74.8045,259.712 L70.4885,259.712 L70.4885,258.477 L74.8045,258.477 L74.8045,259.712 Z M74.6225,266.901 L71.8405,266.901 L71.8405,265.276 L74.6225,265.276 L74.6225,266.901 Z M79.0425,267.2 L79.9005,264.808 L83.6705,264.808 L84.5025,267.2 L86.3095,267.2 L82.9555,258.178 L80.6675,258.178 L77.2875,267.2 L79.0425,267.2 Z M83.1635,263.378 L80.4075,263.378 L81.7205,259.699 L81.8765,259.699 L83.1635,263.378 Z" id="数据A" fill="#000000" fill-rule="nonzero"></path>
                <g id="模型备份-3" transform="translate(542.100000, 199.300000)" fill-rule="nonzero">
                    <path d="M13.6215755,8.40167854 L13.6215755,16.8802386 C13.6215755,17.0432879 13.5726607,17.2014456 13.4780922,17.328624 L11.7595533,19.6781635 C11.6359032,19.8508037 11.4371,19.9538419 11.2247518,19.9553471 L6.75720283,19.9553471 C6.63328542,19.9553471 6.53219491,20.0645901 6.53219491,20.199921 L6.53219491,25.8512074 C6.53219491,25.9849078 6.63328544,26.0941508 6.75883333,26.0941508 L12.0921737,26.0941508 C12.2177216,26.0941508 12.3204427,25.9849078 12.3204427,25.8512074 L12.3204427,20.7885287 C12.3204427,20.6368929 12.3644659,20.4885181 12.4459906,20.3646007 L13.9982193,18.0493016 C14.1195366,17.862076 14.3262553,17.7477079 14.5493257,17.7443996 L22.6104797,17.7443996 C22.7360276,17.7443996 22.8371182,17.6367871 22.8371182,17.5030867 L22.8371182,8.40167854 C22.8371182,8.26797816 22.7360276,8.15873518 22.6104797,8.15873518 L13.848214,8.15873518 C13.7242966,8.15873518 13.6215755,8.26797816 13.6215755,8.40167854 Z" id="路径" fill="#6476B4"></path>
                    <path d="M9.22576823,17.6987458 L9.22576823,9.22018569 C9.22576823,9.05713646 9.27468302,8.8989787 9.36925156,8.77180031 L11.0877904,6.42226088 C11.2182298,6.24616771 11.4138889,6.14507718 11.6225919,6.14507718 L16.0901409,6.14507718 C16.2140583,6.14507718 16.3151488,6.0358342 16.3151488,5.90050332 L16.3151488,0.25084743 C16.3151488,0.117147048 16.2140583,0.00790407105 16.0885104,0.00790407105 L10.75517,0.00790407105 C10.6296221,0.00790407105 10.5269011,0.117147048 10.5269011,0.25084743 L10.5269011,5.31352609 C10.5279013,5.4641425 10.4842098,5.6116722 10.4013532,5.73745409 L8.84912449,8.0527532 C8.72780716,8.23997884 8.52108845,8.35434688 8.29801808,8.35765526 L0.236864043,8.35765526 C0.11131613,8.35765526 0.010225594,8.46526776 0.010225594,8.59896812 L0.010225594,17.7003763 C0.010225594,17.8340767 0.11131613,17.9433196 0.236864043,17.9433196 L8.99912979,17.9433196 C9.1230472,17.9433196 9.22576821,17.8340767 9.22576823,17.7003763 L9.22576823,17.6987458 Z" id="路径" fill="#2C3E7F"></path>
                </g>
                <path d="M535.341,267.2 L536.199,264.808 L539.969,264.808 L540.801,267.2 L542.608,267.2 L539.254,258.178 L536.966,258.178 L533.586,267.2 L535.341,267.2 Z M539.462,263.378 L536.706,263.378 L538.019,259.699 L538.175,259.699 L539.462,263.378 Z M545.442,267.2 L545.442,258.178 L543.739,258.178 L543.739,267.2 L545.442,267.2 Z M553.853,259.699 L553.853,258.984 L555.556,258.984 L555.556,259.699 L556.661,259.699 L556.661,258.984 L558.429,258.984 L558.429,257.866 L556.661,257.866 L556.661,256.774 L555.556,256.722 L555.556,257.866 L553.853,257.866 L553.853,256.774 L552.735,256.722 L552.735,257.866 L551.149,257.866 L551.149,258.984 L552.735,258.984 L552.735,259.699 L553.853,259.699 Z M550.811,268.734 C551.816333,268.456667 552.626667,268.138167 553.242,267.7785 C553.857333,267.418833 554.321,267.005 554.633,266.537 C555.404333,267.559667 556.674,268.287667 558.442,268.721 L558.442,268.721 L558.793,267.551 C557.926333,267.369 557.228667,267.132833 556.7,266.8425 C556.171333,266.552167 555.759667,266.199 555.465,265.783 L555.465,265.783 L558.442,265.783 L558.442,264.756 L555.166,264.756 L555.166,264.613 C555.166,264.526333 555.168167,264.433167 555.1725,264.3335 C555.176833,264.233833 555.179,264.132 555.179,264.028 L555.179,264.028 L557.74,264.028 L557.74,259.803 L551.409,259.803 L551.409,262.663 C551.235667,262.411667 551.034167,262.147333 550.8045,261.87 C550.574833,261.592667 550.373333,261.363 550.2,261.181 L550.2,261.181 L549.992,261.376 L549.992,260.232 L551.318,260.232 L551.318,259.049 L549.992,259.049 L549.992,256.813 L548.861,256.761 L548.861,259.049 L547.353,259.049 L547.353,260.232 L548.705,260.232 C548.583667,260.604667 548.442833,260.981667 548.2825,261.363 C548.122167,261.744333 547.953167,262.121333 547.7755,262.494 C547.597833,262.866667 547.415833,263.222 547.2295,263.56 C547.043167,263.898 546.863333,264.205667 546.69,264.483 L546.69,264.483 L547.626,265.419 C547.842667,265.055 548.055,264.649833 548.263,264.2035 C548.471,263.757167 548.670333,263.291333 548.861,262.806 L548.861,262.806 L548.861,268.474 L549.992,268.474 L549.992,262.546 C550.122,262.710667 550.247667,262.881833 550.369,263.0595 C550.490333,263.237167 550.603,263.412667 550.707,263.586 L550.707,263.586 L551.409,262.975 L551.409,264.028 L553.983,264.028 L553.983,264.028 L553.983,264.34 C553.983,264.444 553.978667,264.535 553.97,264.613 C553.97,264.673667 553.965667,264.721333 553.957,264.756 L553.957,264.756 L550.902,264.756 L550.902,265.783 L553.658,265.783 C553.432667,266.190333 553.06,266.541333 552.54,266.836 C552.02,267.130667 551.287667,267.386333 550.343,267.603 L550.343,267.603 L550.811,268.734 Z M556.7,261.506 L552.488,261.506 L552.488,260.817 L556.7,260.817 L556.7,261.506 Z M556.7,263.014 L552.488,263.014 L552.488,262.351 L556.7,262.351 L556.7,263.014 Z M568.01,263.846 L568.972,263.768 C569.292667,263.742 569.559167,263.700833 569.7715,263.6445 C569.983833,263.588167 570.150667,263.5015 570.272,263.3845 C570.393333,263.2675 570.48,263.115833 570.532,262.9295 C570.584,262.743167 570.61,262.502667 570.61,262.208 L570.61,262.208 L570.61,257.047 L569.401,256.995 L569.401,261.883 C569.401,262.169 569.3425,262.351 569.2255,262.429 C569.1085,262.507 568.902667,262.559 568.608,262.585 L568.608,262.585 L567.646,262.663 L568.01,263.846 Z M561.237,264.509 C561.505667,264.249 561.733167,263.999833 561.9195,263.7615 C562.105833,263.523167 562.261833,263.282667 562.3875,263.04 C562.513167,262.797333 562.610667,262.546 562.68,262.286 C562.749333,262.026 562.801333,261.74 562.836,261.428 L562.836,261.428 L564.318,261.428 L564.318,263.677 L565.54,263.677 L565.54,261.428 L566.918,261.428 L566.918,260.297 L565.54,260.297 L565.54,258.581 L566.658,258.581 L566.658,257.411 L560.548,257.411 L560.548,258.581 L561.692,258.581 L561.692,260.297 L560.223,260.297 L560.223,261.428 L561.614,261.428 C561.579333,261.636 561.531667,261.831 561.471,262.013 C561.410333,262.195 561.325833,262.374833 561.2175,262.5525 C561.109167,262.730167 560.977,262.914333 560.821,263.105 C560.665,263.295667 560.474333,263.508 560.249,263.742 L560.249,263.742 L561.237,264.509 Z M568.309,262.195 L568.309,257.71 L567.126,257.658 L567.126,262.195 L568.309,262.195 Z M564.318,260.297 L562.901,260.297 L562.901,258.581 L564.318,258.581 L564.318,260.297 Z M571.377,268.24 L571.377,267.07 L566.359,267.07 L566.359,265.666 L570.077,265.666 L570.077,264.535 L566.359,264.535 L566.359,263.846 L565.072,263.794 L565.072,264.535 L561.367,264.535 L561.367,265.666 L565.072,265.666 L565.072,267.07 L560.041,267.07 L560.041,268.24 L571.377,268.24 Z" id="AI模型" fill="#000000" fill-rule="nonzero"></path>
                <path d="M171.966,398.482 C172.676667,398.274 173.283333,398.0595 173.786,397.8385 C174.288667,397.6175 174.704667,397.368333 175.034,397.091 C175.58,397.394333 176.186667,397.632667 176.854,397.806 C177.521333,397.979333 178.297,398.118 179.181,398.222 L179.181,398.222 L179.506,396.974 C178.691333,396.904667 177.985,396.800667 177.387,396.662 C176.789,396.523333 176.264667,396.341333 175.814,396.116 C176.056667,395.639333 176.204,395.058667 176.256,394.374 L176.256,394.374 L178.739,394.374 L178.739,389.122 L176.308,389.122 L176.308,388.16 L179.22,388.16 L179.22,387.029 L172.46,387.029 L172.46,388.16 L175.19,388.16 L175.19,389.122 L172.746,389.122 L172.746,394.374 L173.37,394.374 L172.746,394.842 C172.945333,395.145333 173.146833,395.4205 173.3505,395.6675 C173.554167,395.9145 173.768667,396.142 173.994,396.35 C173.716667,396.532 173.374333,396.696667 172.967,396.844 C172.559667,396.991333 172.065667,397.143 171.485,397.299 L171.485,397.299 L171.966,398.482 Z M171.927,396.935 L171.927,390.851 L170.042,390.851 C170.328,390.114333 170.575,389.343 170.783,388.537 L170.783,388.537 L172.174,388.537 L172.174,387.315 L168.196,387.315 L168.196,388.537 L169.587,388.537 C169.483,388.953 169.355167,389.377667 169.2035,389.811 C169.051833,390.244333 168.885,390.666833 168.703,391.0785 C168.521,391.490167 168.330333,391.882333 168.131,392.255 C167.931667,392.627667 167.732333,392.965667 167.533,393.269 L167.533,393.269 L168.274,394.179 C168.378,394.031667 168.477667,393.882167 168.573,393.7305 C168.668333,393.578833 168.763667,393.425 168.859,393.269 L168.859,393.269 L168.859,396.935 L171.927,396.935 Z M175.19,391.228 L173.838,391.228 L173.838,390.266 L175.19,390.266 L175.19,391.228 Z M177.66,391.228 L176.308,391.228 L176.308,390.266 L177.66,390.266 L177.66,391.228 Z M170.874,395.687 L169.951,395.687 L169.951,392.125 L170.874,392.125 L170.874,395.687 Z M175.19,393.256 L173.838,393.256 L173.838,392.307 L175.19,392.307 L175.19,393.256 Z M177.66,393.256 L176.308,393.256 L176.308,392.307 L177.66,392.307 L177.66,393.256 Z M174.826,395.466 C174.635333,395.31 174.457667,395.141 174.293,394.959 C174.128333,394.777 173.972333,394.582 173.825,394.374 L173.825,394.374 L175.125,394.374 C175.073,394.824667 174.973333,395.188667 174.826,395.466 Z M183.484,398.287 L183.484,389.343 C183.64,388.944333 183.787333,388.539167 183.926,388.1275 C184.064667,387.715833 184.194667,387.297667 184.316,386.873 L184.316,386.873 L183.016,386.457 C182.877333,386.959667 182.706167,387.486167 182.5025,388.0365 C182.298833,388.586833 182.077833,389.126333 181.8395,389.655 C181.601167,390.183667 181.352,390.686333 181.092,391.163 C180.832,391.639667 180.576333,392.06 180.325,392.424 L180.325,392.424 L181.053,393.685 C181.451667,393.182333 181.828667,392.623333 182.184,392.008 L182.184,392.008 L182.184,398.287 L183.484,398.287 Z M188.931,398.313 L188.931,394.335 L192.259,394.335 L192.259,393.087 L188.931,393.087 L188.931,390.318 L191.687,390.318 L191.687,389.083 L188.931,389.083 L188.931,386.548 L187.657,386.496 L187.657,389.083 L186.37,389.083 C186.439333,388.823 186.504333,388.560833 186.565,388.2965 C186.625667,388.032167 186.686333,387.761333 186.747,387.484 L186.747,387.484 L185.473,387.094 C185.386333,387.492667 185.286667,387.904333 185.174,388.329 C185.061333,388.753667 184.937833,389.178333 184.8035,389.603 C184.669167,390.027667 184.526167,390.443667 184.3745,390.851 C184.222833,391.258333 184.069,391.639667 183.913,391.995 L183.913,391.995 L185.239,392.463 C185.377667,392.142333 185.512,391.802167 185.642,391.4425 C185.772,391.082833 185.897667,390.708 186.019,390.318 L186.019,390.318 L187.657,390.318 L187.657,393.087 L183.991,393.087 L183.991,394.335 L187.657,394.335 L187.657,398.313 L188.931,398.313 Z" id="硬件" fill="#000000" fill-rule="nonzero"></path>
                <path d="M433.766,398.482 C434.476667,398.274 435.083333,398.0595 435.586,397.8385 C436.088667,397.6175 436.504667,397.368333 436.834,397.091 C437.38,397.394333 437.986667,397.632667 438.654,397.806 C439.321333,397.979333 440.097,398.118 440.981,398.222 L440.981,398.222 L441.306,396.974 C440.491333,396.904667 439.785,396.800667 439.187,396.662 C438.589,396.523333 438.064667,396.341333 437.614,396.116 C437.856667,395.639333 438.004,395.058667 438.056,394.374 L438.056,394.374 L440.539,394.374 L440.539,389.122 L438.108,389.122 L438.108,388.16 L441.02,388.16 L441.02,387.029 L434.26,387.029 L434.26,388.16 L436.99,388.16 L436.99,389.122 L434.546,389.122 L434.546,394.374 L435.17,394.374 L434.546,394.842 C434.745333,395.145333 434.946833,395.4205 435.1505,395.6675 C435.354167,395.9145 435.568667,396.142 435.794,396.35 C435.516667,396.532 435.174333,396.696667 434.767,396.844 C434.359667,396.991333 433.865667,397.143 433.285,397.299 L433.285,397.299 L433.766,398.482 Z M433.727,396.935 L433.727,390.851 L431.842,390.851 C432.128,390.114333 432.375,389.343 432.583,388.537 L432.583,388.537 L433.974,388.537 L433.974,387.315 L429.996,387.315 L429.996,388.537 L431.387,388.537 C431.283,388.953 431.155167,389.377667 431.0035,389.811 C430.851833,390.244333 430.685,390.666833 430.503,391.0785 C430.321,391.490167 430.130333,391.882333 429.931,392.255 C429.731667,392.627667 429.532333,392.965667 429.333,393.269 L429.333,393.269 L430.074,394.179 C430.178,394.031667 430.277667,393.882167 430.373,393.7305 C430.468333,393.578833 430.563667,393.425 430.659,393.269 L430.659,393.269 L430.659,396.935 L433.727,396.935 Z M436.99,391.228 L435.638,391.228 L435.638,390.266 L436.99,390.266 L436.99,391.228 Z M439.46,391.228 L438.108,391.228 L438.108,390.266 L439.46,390.266 L439.46,391.228 Z M432.674,395.687 L431.751,395.687 L431.751,392.125 L432.674,392.125 L432.674,395.687 Z M436.99,393.256 L435.638,393.256 L435.638,392.307 L436.99,392.307 L436.99,393.256 Z M439.46,393.256 L438.108,393.256 L438.108,392.307 L439.46,392.307 L439.46,393.256 Z M436.626,395.466 C436.435333,395.31 436.257667,395.141 436.093,394.959 C435.928333,394.777 435.772333,394.582 435.625,394.374 L435.625,394.374 L436.925,394.374 C436.873,394.824667 436.773333,395.188667 436.626,395.466 Z M445.284,398.287 L445.284,389.343 C445.44,388.944333 445.587333,388.539167 445.726,388.1275 C445.864667,387.715833 445.994667,387.297667 446.116,386.873 L446.116,386.873 L444.816,386.457 C444.677333,386.959667 444.506167,387.486167 444.3025,388.0365 C444.098833,388.586833 443.877833,389.126333 443.6395,389.655 C443.401167,390.183667 443.152,390.686333 442.892,391.163 C442.632,391.639667 442.376333,392.06 442.125,392.424 L442.125,392.424 L442.853,393.685 C443.251667,393.182333 443.628667,392.623333 443.984,392.008 L443.984,392.008 L443.984,398.287 L445.284,398.287 Z M450.731,398.313 L450.731,394.335 L454.059,394.335 L454.059,393.087 L450.731,393.087 L450.731,390.318 L453.487,390.318 L453.487,389.083 L450.731,389.083 L450.731,386.548 L449.457,386.496 L449.457,389.083 L448.17,389.083 C448.239333,388.823 448.304333,388.560833 448.365,388.2965 C448.425667,388.032167 448.486333,387.761333 448.547,387.484 L448.547,387.484 L447.273,387.094 C447.186333,387.492667 447.086667,387.904333 446.974,388.329 C446.861333,388.753667 446.737833,389.178333 446.6035,389.603 C446.469167,390.027667 446.326167,390.443667 446.1745,390.851 C446.022833,391.258333 445.869,391.639667 445.713,391.995 L445.713,391.995 L447.039,392.463 C447.177667,392.142333 447.312,391.802167 447.442,391.4425 C447.572,391.082833 447.697667,390.708 447.819,390.318 L447.819,390.318 L449.457,390.318 L449.457,393.087 L445.791,393.087 L445.791,394.335 L449.457,394.335 L449.457,398.313 L450.731,398.313 Z" id="硬件" fill="#000000" fill-rule="nonzero"></path>
                <use id="矩形" stroke="#2C3E7F" mask="url(#mask-2)" stroke-width="2.2" stroke-dasharray="5.5" xlink:href="#path-1"></use>
                <use id="矩形备份" stroke="#2C3E7F" mask="url(#mask-4)" stroke-width="2.2" stroke-dasharray="5.5" xlink:href="#path-3"></use>
                <g id="主机硬件备份-3" transform="translate(167.000000, 333.500000)" fill-rule="nonzero">
                    <polygon id="路径" fill="#7484BE" points="15.186875 26.4251625 0 18.9932875 0 12.1430375 15.186875 18.9932875"></polygon>
                    <polygon id="路径" fill="#2C3E7F" points="15.186875 26.4251625 28.758125 18.9932875 28.758125 12.2076625 15.186875 18.9932875"></polygon>
                    <polygon id="路径" fill="#E6E6E6" points="0 12.1430375 15.186875 18.9932875 28.758125 12.2076625 12.782825 6.8244"></polygon>
                    <polygon id="路径" fill="#7484BE" points="15.186875 18.37935 0 11.4967875 0 4.9050375 15.186875 10.947475"></polygon>
                    <polygon id="路径" fill="#2C3E7F" points="15.186875 18.37935 28.758125 11.593725 28.758125 4.9050375 15.186875 10.947475"></polygon>
                    <polygon id="路径" fill="#9BAEF5" points="0 4.9050375 15.186875 10.947475 28.758125 4.9050375 12.782825 0.0064625"></polygon>
                    <path d="M13.5389375,23.1195937 L1.16325,17.2387187 L1.16325,14.7506562 L13.5389375,20.4699687 L13.5389375,23.1195937 Z M13.5389375,15.4615313 L1.16325,10.1299687 L1.16325,7.64190625 L13.5389375,12.8119062 L13.5389375,15.4615313 Z" id="形状" fill="#2C3E7F"></path>
                    <path d="M1.85796875,8.75991875 L3.91950625,9.629125 L3.91950625,10.533875 L1.85796875,9.66466875 L1.85796875,8.75991875 L1.85796875,8.75991875 Z M4.64976875,10.8376125 L6.71130625,11.7068188 L6.71130625,10.8085313 L4.64976875,9.939325 L4.64976875,10.8376125 L4.64976875,10.8376125 Z M7.4383375,12.0137875 L9.499875,12.8829938 L9.499875,11.9847063 L7.4383375,11.1155 L7.4383375,12.0137875 Z M10.2269062,12.291675 L10.2269062,13.1867313 L12.2884437,14.0559375 L12.2884437,13.1608813 L10.2269062,12.291675 Z M1.85796875,15.8363563 L3.91950625,16.7960375 L3.91950625,17.7266375 L1.85796875,16.7411063 L1.85796875,15.8363563 L1.85796875,15.8363563 Z M4.64976875,18.0756125 L6.71130625,19.0611437 L6.71130625,18.0917687 L4.64976875,17.1320875 L4.64976875,18.0756125 L4.64976875,18.0756125 Z M7.4383375,19.4101187 L9.499875,20.39565 L9.499875,19.3875 L7.4383375,18.4278188 L7.4383375,19.4101187 Z M10.2269062,19.7267812 L10.2269062,20.7413937 L12.2884437,21.726925 L12.2884437,20.6832312 L10.2269062,19.7267812 Z" id="形状" fill="#FFFFFF"></path>
                </g>
                <g id="主机硬件备份-4" transform="translate(427.700000, 333.500000)" fill-rule="nonzero">
                    <polygon id="路径" fill="#7484BE" points="15.186875 26.4251625 0 18.9932875 0 12.1430375 15.186875 18.9932875"></polygon>
                    <polygon id="路径" fill="#2C3E7F" points="15.186875 26.4251625 28.758125 18.9932875 28.758125 12.2076625 15.186875 18.9932875"></polygon>
                    <polygon id="路径" fill="#E6E6E6" points="0 12.1430375 15.186875 18.9932875 28.758125 12.2076625 12.782825 6.8244"></polygon>
                    <polygon id="路径" fill="#7484BE" points="15.186875 18.37935 0 11.4967875 0 4.9050375 15.186875 10.947475"></polygon>
                    <polygon id="路径" fill="#2C3E7F" points="15.186875 18.37935 28.758125 11.593725 28.758125 4.9050375 15.186875 10.947475"></polygon>
                    <polygon id="路径" fill="#9BAEF5" points="0 4.9050375 15.186875 10.947475 28.758125 4.9050375 12.782825 0.0064625"></polygon>
                    <path d="M13.5389375,23.1195937 L1.16325,17.2387187 L1.16325,14.7506562 L13.5389375,20.4699687 L13.5389375,23.1195937 Z M13.5389375,15.4615313 L1.16325,10.1299687 L1.16325,7.64190625 L13.5389375,12.8119062 L13.5389375,15.4615313 Z" id="形状" fill="#2C3E7F"></path>
                    <path d="M1.85796875,8.75991875 L3.91950625,9.629125 L3.91950625,10.533875 L1.85796875,9.66466875 L1.85796875,8.75991875 L1.85796875,8.75991875 Z M4.64976875,10.8376125 L6.71130625,11.7068188 L6.71130625,10.8085313 L4.64976875,9.939325 L4.64976875,10.8376125 L4.64976875,10.8376125 Z M7.4383375,12.0137875 L9.499875,12.8829938 L9.499875,11.9847063 L7.4383375,11.1155 L7.4383375,12.0137875 Z M10.2269062,12.291675 L10.2269062,13.1867313 L12.2884437,14.0559375 L12.2884437,13.1608813 L10.2269062,12.291675 Z M1.85796875,15.8363563 L3.91950625,16.7960375 L3.91950625,17.7266375 L1.85796875,16.7411063 L1.85796875,15.8363563 L1.85796875,15.8363563 Z M4.64976875,18.0756125 L6.71130625,19.0611437 L6.71130625,18.0917687 L4.64976875,17.1320875 L4.64976875,18.0756125 L4.64976875,18.0756125 Z M7.4383375,19.4101187 L9.499875,20.39565 L9.499875,19.3875 L7.4383375,18.4278188 L7.4383375,19.4101187 Z M10.2269062,19.7267812 L10.2269062,20.7413937 L12.2884437,21.726925 L12.2884437,20.6832312 L10.2269062,19.7267812 Z" id="形状" fill="#FFFFFF"></path>
                </g>
            </g>
        </g>
    </g>
</svg>